<svg width="375" height="105" viewBox="0 0 375 105" fill="none" xmlns="http://www.w3.org/2000/svg">
<path d="M131.281 40.76H118.961V33.5H152.511V40.76H140.191V72H131.281V40.76ZM164.251 46.315C165.277 44.885 166.652 43.8033 168.376 43.07C170.136 42.3367 172.152 41.97 174.426 41.97V49.89C173.472 49.8167 172.831 49.78 172.501 49.78C170.044 49.78 168.119 50.4767 166.726 51.87C165.332 53.2267 164.636 55.28 164.636 58.03V72H156.056V42.41H164.251V46.315ZM209.552 42.41V72H201.412V68.48C200.276 69.7633 198.919 70.7533 197.342 71.45C195.766 72.11 194.061 72.44 192.227 72.44C188.341 72.44 185.261 71.3217 182.987 69.085C180.714 66.8483 179.577 63.53 179.577 59.13V42.41H188.157V57.865C188.157 62.6317 190.156 65.015 194.152 65.015C196.206 65.015 197.856 64.355 199.102 63.035C200.349 61.6783 200.972 59.68 200.972 57.04V42.41H209.552ZM227.456 72.44C224.999 72.44 222.598 72.1467 220.251 71.56C217.904 70.9367 216.034 70.1667 214.641 69.25L217.501 63.09C218.821 63.9333 220.416 64.63 222.286 65.18C224.156 65.6933 225.989 65.95 227.786 65.95C231.416 65.95 233.231 65.0517 233.231 63.255C233.231 62.4117 232.736 61.8067 231.746 61.44C230.756 61.0733 229.234 60.7617 227.181 60.505C224.761 60.1383 222.763 59.7167 221.186 59.24C219.609 58.7633 218.234 57.92 217.061 56.71C215.924 55.5 215.356 53.7767 215.356 51.54C215.356 49.67 215.888 48.02 216.951 46.59C218.051 45.1233 219.628 43.9867 221.681 43.18C223.771 42.3733 226.228 41.97 229.051 41.97C231.141 41.97 233.213 42.2083 235.266 42.685C237.356 43.125 239.079 43.7483 240.436 44.555L237.576 50.66C234.973 49.1933 232.131 48.46 229.051 48.46C227.218 48.46 225.843 48.7167 224.926 49.23C224.009 49.7433 223.551 50.4033 223.551 51.21C223.551 52.1267 224.046 52.7683 225.036 53.135C226.026 53.5017 227.603 53.85 229.766 54.18C232.186 54.5833 234.166 55.0233 235.706 55.5C237.246 55.94 238.584 56.765 239.721 57.975C240.858 59.185 241.426 60.8717 241.426 63.035C241.426 64.8683 240.876 66.5 239.776 67.93C238.676 69.36 237.063 70.4783 234.936 71.285C232.846 72.055 230.353 72.44 227.456 72.44ZM265.805 70.57C264.961 71.1933 263.916 71.67 262.67 72C261.46 72.2933 260.176 72.44 258.82 72.44C255.3 72.44 252.568 71.5417 250.625 69.745C248.718 67.9483 247.765 65.3083 247.765 61.825V49.67H243.2V43.07H247.765V35.865H256.345V43.07H263.715V49.67H256.345V61.715C256.345 62.9617 256.656 63.9333 257.28 64.63C257.94 65.29 258.856 65.62 260.03 65.62C261.386 65.62 262.541 65.2533 263.495 64.52L265.805 70.57ZM278.816 46.315C279.843 44.885 281.218 43.8033 282.941 43.07C284.701 42.3367 286.718 41.97 288.991 41.97V49.89C288.038 49.8167 287.396 49.78 287.066 49.78C284.609 49.78 282.684 50.4767 281.291 51.87C279.898 53.2267 279.201 55.28 279.201 58.03V72H270.621V42.41H278.816V46.315ZM322.809 57.315C322.809 57.425 322.754 58.195 322.644 59.625H300.259C300.663 61.4583 301.616 62.9067 303.119 63.97C304.623 65.0333 306.493 65.565 308.729 65.565C310.269 65.565 311.626 65.345 312.799 64.905C314.009 64.4283 315.128 63.695 316.154 62.705L320.719 67.655C317.933 70.845 313.863 72.44 308.509 72.44C305.173 72.44 302.221 71.7983 299.654 70.515C297.088 69.195 295.108 67.38 293.714 65.07C292.321 62.76 291.624 60.1383 291.624 57.205C291.624 54.3083 292.303 51.705 293.659 49.395C295.053 47.0483 296.941 45.2333 299.324 43.95C301.744 42.63 304.439 41.97 307.409 41.97C310.306 41.97 312.928 42.5933 315.274 43.84C317.621 45.0867 319.454 46.8833 320.774 49.23C322.131 51.54 322.809 54.235 322.809 57.315ZM307.464 48.46C305.521 48.46 303.889 49.01 302.569 50.11C301.249 51.21 300.443 52.7133 300.149 54.62H314.724C314.431 52.75 313.624 51.265 312.304 50.165C310.984 49.0283 309.371 48.46 307.464 48.46ZM357.507 57.315C357.507 57.425 357.452 58.195 357.342 59.625H334.957C335.36 61.4583 336.313 62.9067 337.817 63.97C339.32 65.0333 341.19 65.565 343.427 65.565C344.967 65.565 346.323 65.345 347.497 64.905C348.707 64.4283 349.825 63.695 350.852 62.705L355.417 67.655C352.63 70.845 348.56 72.44 343.207 72.44C339.87 72.44 336.918 71.7983 334.352 70.515C331.785 69.195 329.805 67.38 328.412 65.07C327.018 62.76 326.322 60.1383 326.322 57.205C326.322 54.3083 327 51.705 328.357 49.395C329.75 47.0483 331.638 45.2333 334.022 43.95C336.442 42.63 339.137 41.97 342.107 41.97C345.003 41.97 347.625 42.5933 349.972 43.84C352.318 45.0867 354.152 46.8833 355.472 49.23C356.828 51.54 357.507 54.235 357.507 57.315ZM342.162 48.46C340.218 48.46 338.587 49.01 337.267 50.11C335.947 51.21 335.14 52.7133 334.847 54.62H349.422C349.128 52.75 348.322 51.265 347.002 50.165C345.682 49.0283 344.068 48.46 342.162 48.46Z" fill="white"/>
<rect x="7" y="2" width="100" height="100" rx="20" fill="white"/>
<path fill-rule="evenodd" clip-rule="evenodd" d="M39.5284 71.7739C47.8852 74.1725 54 81.8721 54 91V102H87C98.0457 102 107 93.0457 107 82V44.5L91.2587 41.6379C87.1525 40.8914 82.9245 41.1918 78.9652 42.5116C76.9962 43.1679 74.9526 43.5748 72.8824 43.7227L69.8091 43.9422C64.6453 44.3111 59.4572 43.7466 54.4936 42.2759L49.7643 40.8746C48.9258 40.6262 48.0559 40.5 47.1814 40.5C42.9712 40.5 39.3118 43.3904 38.3366 47.4861L37.88 49.4038C37.6279 50.4627 37.5263 51.5517 37.578 52.639L37.9434 60.3116C37.9811 61.1028 37.9604 61.8957 37.8816 62.6839C37.6307 65.193 37.9715 67.726 38.8767 70.0795L39.5284 71.7739ZM107 37.5V22C107 19.7624 106.633 17.6107 105.955 15.6018L101.459 20.3408C95.864 26.2379 99.013 35.9889 107 37.5ZM101.396 8.11598C99.5477 6.20033 97.3209 4.65257 94.8359 3.59333L78.1884 19.5324C74.9666 22.6171 70.3693 23.7985 66.0594 22.6492L62.0244 21.5732C59.5789 20.921 56.9792 21.776 55.3981 23.7523C54.4931 24.8836 54 26.2893 54 27.7381V28.3968C54 29.4375 54.3375 30.45 54.9619 31.2825C55.3176 31.7568 55.7578 32.1611 56.2605 32.4753L57.023 32.9519C58.638 33.9613 60.516 34.4692 62.4196 34.4115L66.594 34.285C72.6298 34.1021 78.3614 31.5932 82.5904 27.2828L101.396 8.11598ZM81.625 2H76L71.0829 8.55609C70.4502 9.39975 70.4883 10.5697 71.1746 11.3704C72.1114 12.4633 73.8193 12.4076 74.6829 11.2561L81.625 2ZM62 2H54V3.26393C54 5.24721 55.1205 7.06027 56.8944 7.94721L57.421 8.21049C57.8018 8.40088 58.2216 8.5 58.6474 8.5C60.0009 8.5 61.1519 7.51248 61.3577 6.17472L62 2ZM41 2H35.5L37.7726 9.67017C38.7748 13.0523 37.2305 16.6691 34.0947 18.2845L30.2357 20.2725C26.9894 21.9448 26.734 26.4893 29.7724 28.5149C30.2535 28.8357 30.7887 29.0666 31.3521 29.1966L32.055 29.3588C35.1126 30.0644 38.3138 29.0767 40.4423 26.7709L41.6123 25.5034C42.5304 24.5087 43.2687 23.362 43.7939 22.1144L45.1625 18.864C46.2636 16.2488 45.5959 13.2236 43.4963 11.3149C42.2155 10.1505 41.4357 8.53513 41.3205 6.80799L41 2ZM18.1145 71L20.4877 65.1976C21.4924 62.7411 22.2039 60.1747 22.6075 57.5515L22.8274 56.1216C22.9423 55.375 23 54.6206 23 53.8652C23 51.6499 22.504 49.4626 21.5484 47.464L20.5 45.2714C18.0983 41.0684 13.3248 38.8157 8.55366 39.6337L7 39.9V71H18.1145ZM7 32.7174C10.9597 29.8346 12.0583 24.0777 8.91053 19.8807L7.42159 17.8955C7.14526 19.2203 7 20.5932 7 22V32.7174ZM11.6044 9.23302L15.3565 12.323C17.0086 13.6835 19.2302 14.131 21.2801 13.516C24.8906 12.4328 26.7943 8.48584 25.3944 4.98598L24.2737 2.18426C19.1963 2.87632 14.7251 5.47399 11.6044 9.23302Z" fill="url(#paint0_linear)"/>
<defs>
<linearGradient id="paint0_linear" x1="2" y1="17" x2="125" y2="102.5" gradientUnits="userSpaceOnUse">
<stop stop-color="#4749D7"/>
<stop offset="0.135417" stop-color="#6B7FDA"/>
<stop offset="0.354167" stop-color="#719FE8"/>
<stop offset="0.572917" stop-color="#6CD6FC"/>
<stop offset="1" stop-color="#7FD7EB"/>
</linearGradient>
</defs>
</svg>
