<svg width="360" height="105" viewBox="0 0 360 105" fill="none" xmlns="http://www.w3.org/2000/svg">
<g clip-path="url(#clip0)">
<path d="M127.281 40.76H114.961V33.5H148.511V40.76H136.191V72H127.281V40.76ZM160.251 46.315C161.277 44.885 162.652 43.8033 164.376 43.07C166.136 42.3367 168.152 41.97 170.426 41.97V49.89C169.472 49.8167 168.831 49.78 168.501 49.78C166.044 49.78 164.119 50.4767 162.726 51.87C161.332 53.2267 160.636 55.28 160.636 58.03V72H152.056V42.41H160.251V46.315ZM205.552 42.41V72H197.412V68.48C196.276 69.7633 194.919 70.7533 193.342 71.45C191.766 72.11 190.061 72.44 188.227 72.44C184.341 72.44 181.261 71.3217 178.987 69.085C176.714 66.8483 175.577 63.53 175.577 59.13V42.41H184.157V57.865C184.157 62.6317 186.156 65.015 190.152 65.015C192.206 65.015 193.856 64.355 195.102 63.035C196.349 61.6783 196.972 59.68 196.972 57.04V42.41H205.552ZM223.456 72.44C220.999 72.44 218.598 72.1467 216.251 71.56C213.904 70.9367 212.034 70.1667 210.641 69.25L213.501 63.09C214.821 63.9333 216.416 64.63 218.286 65.18C220.156 65.6933 221.989 65.95 223.786 65.95C227.416 65.95 229.231 65.0517 229.231 63.255C229.231 62.4117 228.736 61.8067 227.746 61.44C226.756 61.0733 225.234 60.7617 223.181 60.505C220.761 60.1383 218.763 59.7167 217.186 59.24C215.609 58.7633 214.234 57.92 213.061 56.71C211.924 55.5 211.356 53.7767 211.356 51.54C211.356 49.67 211.888 48.02 212.951 46.59C214.051 45.1233 215.628 43.9867 217.681 43.18C219.771 42.3733 222.228 41.97 225.051 41.97C227.141 41.97 229.213 42.2083 231.266 42.685C233.356 43.125 235.079 43.7483 236.436 44.555L233.576 50.66C230.973 49.1933 228.131 48.46 225.051 48.46C223.218 48.46 221.843 48.7167 220.926 49.23C220.009 49.7433 219.551 50.4033 219.551 51.21C219.551 52.1267 220.046 52.7683 221.036 53.135C222.026 53.5017 223.603 53.85 225.766 54.18C228.186 54.5833 230.166 55.0233 231.706 55.5C233.246 55.94 234.584 56.765 235.721 57.975C236.858 59.185 237.426 60.8717 237.426 63.035C237.426 64.8683 236.876 66.5 235.776 67.93C234.676 69.36 233.063 70.4783 230.936 71.285C228.846 72.055 226.353 72.44 223.456 72.44ZM261.805 70.57C260.961 71.1933 259.916 71.67 258.67 72C257.46 72.2933 256.176 72.44 254.82 72.44C251.3 72.44 248.568 71.5417 246.625 69.745C244.718 67.9483 243.765 65.3083 243.765 61.825V49.67H239.2V43.07H243.765V35.865H252.345V43.07H259.715V49.67H252.345V61.715C252.345 62.9617 252.656 63.9333 253.28 64.63C253.94 65.29 254.856 65.62 256.03 65.62C257.386 65.62 258.541 65.2533 259.495 64.52L261.805 70.57ZM274.816 46.315C275.843 44.885 277.218 43.8033 278.941 43.07C280.701 42.3367 282.718 41.97 284.991 41.97V49.89C284.038 49.8167 283.396 49.78 283.066 49.78C280.609 49.78 278.684 50.4767 277.291 51.87C275.898 53.2267 275.201 55.28 275.201 58.03V72H266.621V42.41H274.816V46.315ZM318.809 57.315C318.809 57.425 318.754 58.195 318.644 59.625H296.259C296.663 61.4583 297.616 62.9067 299.119 63.97C300.623 65.0333 302.493 65.565 304.729 65.565C306.269 65.565 307.626 65.345 308.799 64.905C310.009 64.4283 311.128 63.695 312.154 62.705L316.719 67.655C313.933 70.845 309.863 72.44 304.509 72.44C301.173 72.44 298.221 71.7983 295.654 70.515C293.088 69.195 291.108 67.38 289.714 65.07C288.321 62.76 287.624 60.1383 287.624 57.205C287.624 54.3083 288.303 51.705 289.659 49.395C291.053 47.0483 292.941 45.2333 295.324 43.95C297.744 42.63 300.439 41.97 303.409 41.97C306.306 41.97 308.928 42.5933 311.274 43.84C313.621 45.0867 315.454 46.8833 316.774 49.23C318.131 51.54 318.809 54.235 318.809 57.315ZM303.464 48.46C301.521 48.46 299.889 49.01 298.569 50.11C297.249 51.21 296.443 52.7133 296.149 54.62H310.724C310.431 52.75 309.624 51.265 308.304 50.165C306.984 49.0283 305.371 48.46 303.464 48.46ZM353.507 57.315C353.507 57.425 353.452 58.195 353.342 59.625H330.957C331.36 61.4583 332.313 62.9067 333.817 63.97C335.32 65.0333 337.19 65.565 339.427 65.565C340.967 65.565 342.323 65.345 343.497 64.905C344.707 64.4283 345.825 63.695 346.852 62.705L351.417 67.655C348.63 70.845 344.56 72.44 339.207 72.44C335.87 72.44 332.918 71.7983 330.352 70.515C327.785 69.195 325.805 67.38 324.412 65.07C323.018 62.76 322.322 60.1383 322.322 57.205C322.322 54.3083 323 51.705 324.357 49.395C325.75 47.0483 327.638 45.2333 330.022 43.95C332.442 42.63 335.137 41.97 338.107 41.97C341.003 41.97 343.625 42.5933 345.972 43.84C348.318 45.0867 350.152 46.8833 351.472 49.23C352.828 51.54 353.507 54.235 353.507 57.315ZM338.162 48.46C336.218 48.46 334.587 49.01 333.267 50.11C331.947 51.21 331.14 52.7133 330.847 54.62H345.422C345.128 52.75 344.322 51.265 343.002 50.165C341.682 49.0283 340.068 48.46 338.162 48.46Z" fill="#5A5A5A"/>
<rect x="7" y="2" width="100" height="100" rx="20" fill="white"/>
<g filter="url(#filter0_d)">
<mask id="path-3-inside-1" fill="white">
<path fill-rule="evenodd" clip-rule="evenodd" d="M39.5284 71.7739C47.8852 74.1725 54 81.8721 54 91V102H87C98.0457 102 107 93.0457 107 82V44.5L91.2587 41.6379C87.1525 40.8914 82.9245 41.1918 78.9652 42.5116C76.9962 43.1679 74.9526 43.5748 72.8824 43.7227L69.8091 43.9422C64.6453 44.3111 59.4572 43.7466 54.4936 42.2759L49.7643 40.8746C48.9258 40.6262 48.0559 40.5 47.1814 40.5C42.9712 40.5 39.3118 43.3904 38.3366 47.4861L37.88 49.4038C37.6279 50.4627 37.5263 51.5517 37.578 52.639L37.9434 60.3116C37.9811 61.1028 37.9604 61.8957 37.8816 62.6839C37.6307 65.193 37.9715 67.726 38.8767 70.0795L39.5284 71.7739ZM107 37.5V22C107 19.7624 106.633 17.6107 105.955 15.6018L101.459 20.3408C95.864 26.2379 99.013 35.9889 107 37.5ZM101.396 8.11598C99.5477 6.20033 97.3209 4.65257 94.8359 3.59333L78.1884 19.5324C74.9666 22.6171 70.3693 23.7985 66.0594 22.6492L62.0244 21.5732C59.5789 20.921 56.9792 21.776 55.3981 23.7523C54.4931 24.8836 54 26.2893 54 27.7381V28.3968C54 29.4375 54.3375 30.45 54.9619 31.2825C55.3176 31.7568 55.7578 32.1611 56.2605 32.4753L57.023 32.9519C58.638 33.9613 60.516 34.4692 62.4196 34.4115L66.594 34.285C72.6298 34.1021 78.3614 31.5932 82.5904 27.2828L101.396 8.11598ZM81.625 2H76L71.0829 8.55609C70.4502 9.39975 70.4883 10.5697 71.1746 11.3704C72.1114 12.4633 73.8193 12.4076 74.6829 11.2561L81.625 2ZM62 2H54V3.26393C54 5.24721 55.1205 7.06027 56.8944 7.94721L57.421 8.21049C57.8018 8.40088 58.2216 8.5 58.6474 8.5C60.0009 8.5 61.1519 7.51248 61.3577 6.17472L62 2ZM41 2H35.5L37.7726 9.67017C38.7748 13.0523 37.2305 16.6691 34.0947 18.2845L30.2357 20.2725C26.9894 21.9448 26.734 26.4893 29.7724 28.5149C30.2535 28.8357 30.7887 29.0666 31.3521 29.1966L32.055 29.3588C35.1126 30.0644 38.3138 29.0767 40.4423 26.7709L41.6123 25.5034C42.5304 24.5087 43.2687 23.362 43.7939 22.1144L45.1625 18.864C46.2636 16.2488 45.5959 13.2236 43.4963 11.3149C42.2155 10.1505 41.4357 8.53513 41.3205 6.80799L41 2ZM18.1145 71L20.4877 65.1976C21.4924 62.7411 22.2039 60.1747 22.6075 57.5515L22.8274 56.1216C22.9423 55.375 23 54.6206 23 53.8652C23 51.6499 22.504 49.4626 21.5484 47.464L20.5 45.2714C18.0983 41.0684 13.3248 38.8157 8.55366 39.6337L7 39.9V71H18.1145ZM7 32.7174C10.9597 29.8346 12.0583 24.0777 8.91053 19.8807L7.42159 17.8955C7.14526 19.2203 7 20.5932 7 22V32.7174ZM11.6044 9.23302L15.3565 12.323C17.0086 13.6835 19.2302 14.131 21.2801 13.516C24.8906 12.4328 26.7943 8.48584 25.3944 4.98598L24.2737 2.18426C19.1963 2.87632 14.7251 5.47399 11.6044 9.23302Z"/>
</mask>
<path fill-rule="evenodd" clip-rule="evenodd" d="M39.5284 71.7739C47.8852 74.1725 54 81.8721 54 91V102H87C98.0457 102 107 93.0457 107 82V44.5L91.2587 41.6379C87.1525 40.8914 82.9245 41.1918 78.9652 42.5116C76.9962 43.1679 74.9526 43.5748 72.8824 43.7227L69.8091 43.9422C64.6453 44.3111 59.4572 43.7466 54.4936 42.2759L49.7643 40.8746C48.9258 40.6262 48.0559 40.5 47.1814 40.5C42.9712 40.5 39.3118 43.3904 38.3366 47.4861L37.88 49.4038C37.6279 50.4627 37.5263 51.5517 37.578 52.639L37.9434 60.3116C37.9811 61.1028 37.9604 61.8957 37.8816 62.6839C37.6307 65.193 37.9715 67.726 38.8767 70.0795L39.5284 71.7739ZM107 37.5V22C107 19.7624 106.633 17.6107 105.955 15.6018L101.459 20.3408C95.864 26.2379 99.013 35.9889 107 37.5ZM101.396 8.11598C99.5477 6.20033 97.3209 4.65257 94.8359 3.59333L78.1884 19.5324C74.9666 22.6171 70.3693 23.7985 66.0594 22.6492L62.0244 21.5732C59.5789 20.921 56.9792 21.776 55.3981 23.7523C54.4931 24.8836 54 26.2893 54 27.7381V28.3968C54 29.4375 54.3375 30.45 54.9619 31.2825C55.3176 31.7568 55.7578 32.1611 56.2605 32.4753L57.023 32.9519C58.638 33.9613 60.516 34.4692 62.4196 34.4115L66.594 34.285C72.6298 34.1021 78.3614 31.5932 82.5904 27.2828L101.396 8.11598ZM81.625 2H76L71.0829 8.55609C70.4502 9.39975 70.4883 10.5697 71.1746 11.3704C72.1114 12.4633 73.8193 12.4076 74.6829 11.2561L81.625 2ZM62 2H54V3.26393C54 5.24721 55.1205 7.06027 56.8944 7.94721L57.421 8.21049C57.8018 8.40088 58.2216 8.5 58.6474 8.5C60.0009 8.5 61.1519 7.51248 61.3577 6.17472L62 2ZM41 2H35.5L37.7726 9.67017C38.7748 13.0523 37.2305 16.6691 34.0947 18.2845L30.2357 20.2725C26.9894 21.9448 26.734 26.4893 29.7724 28.5149C30.2535 28.8357 30.7887 29.0666 31.3521 29.1966L32.055 29.3588C35.1126 30.0644 38.3138 29.0767 40.4423 26.7709L41.6123 25.5034C42.5304 24.5087 43.2687 23.362 43.7939 22.1144L45.1625 18.864C46.2636 16.2488 45.5959 13.2236 43.4963 11.3149C42.2155 10.1505 41.4357 8.53513 41.3205 6.80799L41 2ZM18.1145 71L20.4877 65.1976C21.4924 62.7411 22.2039 60.1747 22.6075 57.5515L22.8274 56.1216C22.9423 55.375 23 54.6206 23 53.8652C23 51.6499 22.504 49.4626 21.5484 47.464L20.5 45.2714C18.0983 41.0684 13.3248 38.8157 8.55366 39.6337L7 39.9V71H18.1145ZM7 32.7174C10.9597 29.8346 12.0583 24.0777 8.91053 19.8807L7.42159 17.8955C7.14526 19.2203 7 20.5932 7 22V32.7174ZM11.6044 9.23302L15.3565 12.323C17.0086 13.6835 19.2302 14.131 21.2801 13.516C24.8906 12.4328 26.7943 8.48584 25.3944 4.98598L24.2737 2.18426C19.1963 2.87632 14.7251 5.47399 11.6044 9.23302Z" fill="url(#paint0_linear)"/>
<path d="M39.5284 71.7739L38.5951 72.1329L38.7739 72.5977L39.2525 72.7351L39.5284 71.7739ZM54 102H53V103H54V102ZM107 44.5H108V43.6654L107.179 43.5161L107 44.5ZM91.2587 41.6379L91.4376 40.6541L91.4376 40.6541L91.2587 41.6379ZM78.9652 42.5116L79.2814 43.4603L79.2814 43.4603L78.9652 42.5116ZM72.8824 43.7227L72.8111 42.7252L72.8111 42.7252L72.8824 43.7227ZM69.8091 43.9422L69.8804 44.9397L69.8804 44.9397L69.8091 43.9422ZM54.4936 42.2759L54.2095 43.2347L54.2095 43.2347L54.4936 42.2759ZM49.7643 40.8746L49.4802 41.8334L49.4802 41.8334L49.7643 40.8746ZM38.3366 47.4861L37.3638 47.2545L37.3638 47.2545L38.3366 47.4861ZM37.88 49.4038L38.8529 49.6354L38.8529 49.6354L37.88 49.4038ZM37.578 52.639L38.5769 52.5914L38.5769 52.5914L37.578 52.639ZM37.9434 60.3116L38.9423 60.264L38.9423 60.264L37.9434 60.3116ZM37.8816 62.6839L36.8866 62.5844L36.8866 62.5844L37.8816 62.6839ZM38.8767 70.0795L37.9434 70.4385L37.9434 70.4385L38.8767 70.0795ZM107 37.5L106.814 38.4826L108 38.7069V37.5H107ZM105.955 15.6018L106.902 15.2821L106.372 13.7095L105.229 14.9135L105.955 15.6018ZM101.459 20.3408L100.733 19.6526L100.733 19.6526L101.459 20.3408ZM101.396 8.11598L102.109 8.81632L102.791 8.12187L102.115 7.42169L101.396 8.11598ZM94.8359 3.59333L95.228 2.67342L94.6209 2.41466L94.1443 2.87103L94.8359 3.59333ZM78.1884 19.5324L78.88 20.2547L78.88 20.2547L78.1884 19.5324ZM66.0594 22.6492L66.3171 21.6829L66.3171 21.6829L66.0594 22.6492ZM62.0244 21.5732L61.7667 22.5394L61.7667 22.5394L62.0244 21.5732ZM55.3981 23.7523L56.179 24.377L56.179 24.377L55.3981 23.7523ZM54.9619 31.2825L54.1619 31.8825L54.1619 31.8825L54.9619 31.2825ZM56.2605 32.4753L55.7305 33.3233L55.7305 33.3233L56.2605 32.4753ZM57.023 32.9519L57.553 32.1039L57.553 32.1039L57.023 32.9519ZM62.4196 34.4115L62.3894 33.412L62.3894 33.412L62.4196 34.4115ZM66.594 34.285L66.5637 33.2855L66.5637 33.2855L66.594 34.285ZM82.5904 27.2828L81.8766 26.5825L81.8766 26.5825L82.5904 27.2828ZM81.625 2L82.425 2.6L83.625 1L81.625 1V2ZM76 2V1H75.5L75.2 1.4L76 2ZM71.0829 8.55609L71.8829 9.15609L71.8829 9.15609L71.0829 8.55609ZM71.1746 11.3704L71.9339 10.7196L71.9339 10.7196L71.1746 11.3704ZM74.6829 11.2561L73.8829 10.6561L73.8829 10.6561L74.6829 11.2561ZM62 2L62.9884 2.15206L63.1656 1H62V2ZM54 2V1H53V2H54ZM56.8944 7.94721L56.4472 8.84164L56.4472 8.84164L56.8944 7.94721ZM61.3577 6.17472L62.3461 6.32678L62.3461 6.32678L61.3577 6.17472ZM41 2L41.9978 1.93348L41.9356 1H41V2ZM35.5 2V1H34.1607L34.5412 2.28409L35.5 2ZM37.7726 9.67017L36.8138 9.95426L36.8138 9.95426L37.7726 9.67017ZM34.0947 18.2845L34.5527 19.1735L34.5527 19.1735L34.0947 18.2845ZM30.2357 20.2725L29.7778 19.3835L29.7778 19.3835L30.2357 20.2725ZM29.7724 28.5149L29.2177 29.347L29.2177 29.347L29.7724 28.5149ZM31.3521 29.1966L31.1272 30.171L31.1272 30.171L31.3521 29.1966ZM32.055 29.3588L32.2798 28.3844L32.2798 28.3844L32.055 29.3588ZM40.4423 26.7709L39.7075 26.0926L39.7075 26.0926L40.4423 26.7709ZM41.6123 25.5034L42.3471 26.1817L42.3471 26.1817L41.6123 25.5034ZM43.7939 22.1144L44.7156 22.5024L44.7156 22.5024L43.7939 22.1144ZM45.1625 18.864L46.0842 19.252L46.0842 19.252L45.1625 18.864ZM43.4963 11.3149L44.169 10.5749L44.169 10.5749L43.4963 11.3149ZM41.3205 6.80799L42.3183 6.74147L42.3183 6.74147L41.3205 6.80799ZM20.4877 65.1976L21.4133 65.5762L21.4133 65.5762L20.4877 65.1976ZM18.1145 71V72H18.7859L19.0401 71.3786L18.1145 71ZM22.6075 57.5515L23.5958 57.7036L23.5958 57.7036L22.6075 57.5515ZM22.8274 56.1216L21.8391 55.9696L21.8391 55.9696L22.8274 56.1216ZM21.5484 47.464L20.6462 47.8954L20.6462 47.8954L21.5484 47.464ZM20.5 45.2714L21.4022 44.8401L21.3864 44.8071L21.3682 44.7753L20.5 45.2714ZM8.55366 39.6337L8.72262 40.6193L8.72262 40.6193L8.55366 39.6337ZM7 39.9L6.83104 38.9144L6 39.0568V39.9H7ZM7 71H6V72H7V71ZM8.91053 19.8807L9.71053 19.2807L9.71053 19.2807L8.91053 19.8807ZM7 32.7174H6V34.6824L7.58857 33.5259L7 32.7174ZM7.42159 17.8955L8.22159 17.2955L6.89434 15.5258L6.44266 17.6913L7.42159 17.8955ZM15.3565 12.323L14.7208 13.095L14.7208 13.095L15.3565 12.323ZM11.6044 9.23302L10.835 8.59426L10.1937 9.36672L10.9687 10.0049L11.6044 9.23302ZM21.2801 13.516L21.5674 14.4738L21.5674 14.4738L21.2801 13.516ZM25.3944 4.98598L24.4659 5.35737L24.4659 5.35737L25.3944 4.98598ZM24.2737 2.18426L25.2022 1.81287L24.9122 1.08799L24.1387 1.19343L24.2737 2.18426ZM39.2525 72.7351C47.192 75.0139 53 82.33 53 91H55C55 81.4143 48.5783 73.331 39.8043 70.8127L39.2525 72.7351ZM53 91V102H55V91H53ZM54 103H87V101H54V103ZM87 103C98.598 103 108 93.598 108 82H106C106 92.4934 97.4934 101 87 101V103ZM108 82V44.5H106V82H108ZM91.0798 42.6218L106.821 45.4839L107.179 43.5161L91.4376 40.6541L91.0798 42.6218ZM79.2814 43.4603C83.0812 42.1937 87.139 41.9053 91.0798 42.6218L91.4376 40.6541C87.166 39.8774 82.7677 40.19 78.6489 41.5629L79.2814 43.4603ZM72.9536 44.7201C75.1072 44.5663 77.2331 44.1431 79.2814 43.4603L78.6489 41.5629C76.7592 42.1928 74.798 42.5833 72.8111 42.7252L72.9536 44.7201ZM69.8804 44.9397L72.9536 44.7201L72.8111 42.7252L69.7379 42.9447L69.8804 44.9397ZM54.2095 43.2347C59.2883 44.7395 64.5967 45.3171 69.8804 44.9397L69.7379 42.9447C64.6938 43.305 59.6262 42.7537 54.7776 41.3171L54.2095 43.2347ZM49.4802 41.8334L54.2095 43.2347L54.7776 41.3171L50.0484 39.9158L49.4802 41.8334ZM47.1814 41.5C47.9597 41.5 48.734 41.6123 49.4802 41.8334L50.0484 39.9158C49.1177 39.64 48.1521 39.5 47.1814 39.5V41.5ZM39.3095 47.7177C40.1774 44.0725 43.4343 41.5 47.1814 41.5V39.5C42.5082 39.5 38.4462 42.7084 37.3638 47.2545L39.3095 47.7177ZM38.8529 49.6354L39.3095 47.7177L37.3638 47.2545L36.9072 49.1722L38.8529 49.6354ZM38.5769 52.5914C38.5296 51.598 38.6225 50.6029 38.8529 49.6354L36.9072 49.1722C36.6334 50.3224 36.5229 51.5055 36.5792 52.6865L38.5769 52.5914ZM38.9423 60.264L38.5769 52.5914L36.5792 52.6865L36.9445 60.3591L38.9423 60.264ZM38.8766 62.7834C38.9604 61.9463 38.9823 61.1043 38.9423 60.264L36.9445 60.3591C36.9799 61.1013 36.9605 61.8451 36.8866 62.5844L38.8766 62.7834ZM39.8101 69.7205C38.961 67.5129 38.6413 65.1369 38.8766 62.7834L36.8866 62.5844C36.6201 65.249 36.9821 67.9391 37.9434 70.4385L39.8101 69.7205ZM40.4618 71.4149L39.8101 69.7205L37.9434 70.4385L38.5951 72.1329L40.4618 71.4149ZM108 37.5V22H106V37.5H108ZM108 22C108 19.6523 107.614 17.3926 106.902 15.2821L105.007 15.9215C105.651 17.8287 106 19.8725 106 22H108ZM102.184 21.0291L106.68 16.2901L105.229 14.9135L100.733 19.6526L102.184 21.0291ZM107.186 36.5174C99.9766 35.1535 97.1343 26.352 102.184 21.0291L100.733 19.6526C94.5938 26.1239 98.0494 36.8244 106.814 38.4826L107.186 36.5174ZM102.115 7.42169C100.176 5.41105 97.8379 3.78592 95.228 2.67342L94.4437 4.51325C96.8038 5.51921 98.9196 6.9896 100.676 8.81026L102.115 7.42169ZM78.88 20.2547L95.5274 4.31564L94.1443 2.87103L77.4969 18.8101L78.88 20.2547ZM65.8018 23.6154C70.4489 24.8547 75.406 23.5808 78.88 20.2547L77.4969 18.81C74.5272 21.6534 70.2897 22.7423 66.3171 21.6829L65.8018 23.6154ZM61.7667 22.5394L65.8018 23.6154L66.3171 21.6829L62.282 20.6069L61.7667 22.5394ZM56.179 24.377C57.5123 22.7105 59.7045 21.9895 61.7667 22.5394L62.282 20.6069C59.4533 19.8526 56.4461 20.8416 54.6173 23.1276L56.179 24.377ZM55 27.7381C55 26.5164 55.4158 25.331 56.179 24.377L54.6173 23.1276C53.5704 24.4363 53 26.0622 53 27.7381H55ZM55 28.3968V27.7381H53V28.3968H55ZM55.7619 30.6825C55.2673 30.0231 55 29.2211 55 28.3968H53C53 29.6538 53.4077 30.8769 54.1619 31.8825L55.7619 30.6825ZM56.7905 31.6273C56.3923 31.3785 56.0436 31.0582 55.7619 30.6825L54.1619 31.8825C54.5915 32.4554 55.1233 32.9438 55.7305 33.3233L56.7905 31.6273ZM57.553 32.1039L56.7905 31.6273L55.7305 33.3233L56.493 33.7999L57.553 32.1039ZM62.3894 33.412C60.6834 33.4637 59.0003 33.0085 57.553 32.1039L56.493 33.7999C58.2757 34.9141 60.3487 35.4747 62.4499 35.4111L62.3894 33.412ZM66.5637 33.2855L62.3894 33.412L62.4499 35.4111L66.6243 35.2846L66.5637 33.2855ZM81.8766 26.5825C77.8282 30.7087 72.3416 33.1104 66.5637 33.2855L66.6243 35.2846C72.918 35.0939 78.8945 32.4778 83.3042 27.9832L81.8766 26.5825ZM100.682 7.41564L81.8766 26.5825L83.3042 27.9832L102.109 8.81632L100.682 7.41564ZM81.625 1H76V3H81.625V1ZM71.8829 9.15609L76.8 2.6L75.2 1.4L70.2829 7.95609L71.8829 9.15609ZM71.9339 10.7196C71.5526 10.2748 71.5314 9.62479 71.8829 9.15609L70.2829 7.95609C69.369 9.17471 69.424 10.8646 70.4154 12.0212L71.9339 10.7196ZM73.8829 10.6561C73.4031 11.2958 72.4543 11.3267 71.9339 10.7196L70.4153 12.0212C71.7685 13.5998 74.2354 13.5194 75.4829 11.8561L73.8829 10.6561ZM80.825 1.4L73.8829 10.6561L75.4829 11.8561L82.425 2.6L80.825 1.4ZM62 1H54V3H62V1ZM55 3.26393V2H53V3.26393H55ZM57.3416 7.05279C55.9065 6.33523 55 4.86844 55 3.26393H53C53 5.62598 54.3345 7.7853 56.4472 8.84164L57.3416 7.05279ZM57.8682 7.31607L57.3416 7.05279L56.4472 8.84164L56.9738 9.10492L57.8682 7.31607ZM58.6474 7.5C58.3769 7.5 58.1101 7.43703 57.8682 7.31607L56.9738 9.10492C57.4934 9.36474 58.0664 9.5 58.6474 9.5V7.5ZM60.3694 6.02266C60.2386 6.87259 59.5073 7.5 58.6474 7.5V9.5C60.4944 9.5 62.0652 8.15237 62.3461 6.32678L60.3694 6.02266ZM61.0116 1.84794L60.3694 6.02266L62.3461 6.32678L62.9884 2.15206L61.0116 1.84794ZM41 1H35.5V3H41V1ZM38.7314 9.38608L36.4588 1.71591L34.5412 2.28409L36.8138 9.95426L38.7314 9.38608ZM34.5527 19.1735C38.1155 17.3381 39.87 13.2288 38.7314 9.38608L36.8138 9.95426C37.6795 12.8758 36.3456 16.0001 33.6368 17.3956L34.5527 19.1735ZM30.6937 21.1615L34.5527 19.1735L33.6368 17.3956L29.7778 19.3835L30.6937 21.1615ZM30.3271 27.6829C27.9231 26.0802 28.1252 22.4846 30.6937 21.1615L29.7778 19.3835C25.8536 21.4051 25.5448 26.8984 29.2177 29.347L30.3271 27.6829ZM31.5769 28.2222C31.1312 28.1194 30.7077 27.9366 30.3271 27.6829L29.2177 29.347C29.7992 29.7347 30.4462 30.0139 31.1272 30.171L31.5769 28.2222ZM32.2798 28.3844L31.5769 28.2222L31.1272 30.171L31.8301 30.3332L32.2798 28.3844ZM39.7075 26.0926C37.8226 28.1346 34.9876 29.0093 32.2798 28.3844L31.8301 30.3332C35.2376 31.1196 38.8051 30.0188 41.1771 27.4491L39.7075 26.0926ZM40.8775 24.8251L39.7075 26.0926L41.1771 27.4491L42.3471 26.1817L40.8775 24.8251ZM42.8723 21.7263C42.392 22.8671 41.717 23.9156 40.8775 24.8251L42.3471 26.1817C43.3439 25.1018 44.1453 23.8569 44.7156 22.5024L42.8723 21.7263ZM44.2409 18.4759L42.8723 21.7263L44.7156 22.5024L46.0842 19.252L44.2409 18.4759ZM42.8237 12.0548C44.6095 13.6783 45.1775 16.2515 44.2409 18.4759L46.0842 19.252C47.3498 16.2461 46.5823 12.7688 44.169 10.5749L42.8237 12.0548ZM40.3227 6.87451C40.4551 8.85972 41.3515 10.7164 42.8237 12.0548L44.169 10.5749C43.0796 9.58452 42.4163 8.21054 42.3183 6.74147L40.3227 6.87451ZM40.0022 2.06652L40.3227 6.87451L42.3183 6.74147L41.9978 1.93348L40.0022 2.06652ZM19.5621 64.8191L17.1889 70.6214L19.0401 71.3786L21.4133 65.5762L19.5621 64.8191ZM21.6191 57.3995C21.2275 59.9449 20.537 62.4353 19.5621 64.8191L21.4133 65.5762C22.4477 63.0469 23.1803 60.4045 23.5958 57.7036L21.6191 57.3995ZM21.8391 55.9696L21.6191 57.3995L23.5958 57.7036L23.8158 56.2737L21.8391 55.9696ZM22 53.8652C22 54.5697 21.9462 55.2732 21.8391 55.9696L23.8158 56.2737C23.9384 55.4767 24 54.6715 24 53.8652H22ZM20.6462 47.8954C21.5374 49.7593 22 51.7991 22 53.8652H24C24 51.5006 23.4706 49.1659 22.4505 47.0326L20.6462 47.8954ZM19.5978 45.7028L20.6462 47.8954L22.4505 47.0326L21.4022 44.8401L19.5978 45.7028ZM8.72262 40.6193C13.0796 39.8724 17.4386 41.9295 19.6318 45.7676L21.3682 44.7753C18.758 40.2074 13.5701 37.7591 8.3847 38.648L8.72262 40.6193ZM7.16896 40.8856L8.72262 40.6193L8.3847 38.648L6.83104 38.9144L7.16896 40.8856ZM6 39.9V71H8V39.9H6ZM7 72H18.1145V70H7V72ZM8.11053 20.4807C10.9106 24.2141 9.93781 29.3417 6.41143 31.909L7.58857 33.5259C11.9816 30.3276 13.2059 23.9412 9.71053 19.2807L8.11053 20.4807ZM6.62159 18.4955L8.11053 20.4807L9.71053 19.2807L8.22159 17.2955L6.62159 18.4955ZM6.44266 17.6913C6.1524 19.0828 6 20.5242 6 22H8C8 20.6622 8.13811 19.3577 8.40052 18.0996L6.44266 17.6913ZM6 22V32.7174H8V22H6ZM15.9922 11.5511L12.2401 8.46109L10.9687 10.0049L14.7208 13.095L15.9922 11.5511ZM20.9927 12.5582C19.2622 13.0773 17.3869 12.6996 15.9922 11.5511L14.7208 13.095C16.6303 14.6675 19.1981 15.1846 21.5674 14.4738L20.9927 12.5582ZM24.4659 5.35737C25.6477 8.31185 24.0406 11.6438 20.9927 12.5582L21.5674 14.4738C25.7405 13.2219 27.941 8.65983 26.3229 4.61459L24.4659 5.35737ZM23.3452 2.55565L24.4659 5.35737L26.3229 4.61459L25.2022 1.81287L23.3452 2.55565ZM24.1387 1.19343C18.8048 1.92043 14.1101 4.64916 10.835 8.59426L12.3738 9.87177C15.34 6.29881 19.5877 3.83221 24.4088 3.1751L24.1387 1.19343Z" fill="#5E5E5E" mask="url(#path-3-inside-1)"/>
</g>
</g>
<defs>
<filter id="filter0_d" x="3" y="2" width="108" height="108" filterUnits="userSpaceOnUse" color-interpolation-filters="sRGB">
<feFlood flood-opacity="0" result="BackgroundImageFix"/>
<feColorMatrix in="SourceAlpha" type="matrix" values="0 0 0 0 0 0 0 0 0 0 0 0 0 0 0 0 0 0 127 0" result="hardAlpha"/>
<feOffset dy="4"/>
<feGaussianBlur stdDeviation="2"/>
<feComposite in2="hardAlpha" operator="out"/>
<feColorMatrix type="matrix" values="0 0 0 0 0 0 0 0 0 0 0 0 0 0 0 0 0 0 0.25 0"/>
<feBlend mode="normal" in2="BackgroundImageFix" result="effect1_dropShadow"/>
<feBlend mode="normal" in="SourceGraphic" in2="effect1_dropShadow" result="shape"/>
</filter>
<linearGradient id="paint0_linear" x1="2" y1="17" x2="125" y2="102.5" gradientUnits="userSpaceOnUse">
<stop stop-color="#4749D7"/>
<stop offset="0.135417" stop-color="#6B7FDA"/>
<stop offset="0.354167" stop-color="#719FE8"/>
<stop offset="0.572917" stop-color="#6CD6FC"/>
<stop offset="1" stop-color="#7FD7EB"/>
</linearGradient>
<clipPath id="clip0">
<rect width="360" height="105" fill="white"/>
</clipPath>
</defs>
</svg>
