<svg width="108" height="103" viewBox="0 0 108 103" fill="none" xmlns="http://www.w3.org/2000/svg">
<rect x="4" width="100" height="100" rx="20" fill="white"/>
<g filter="url(#filter0_d)">
<path fill-rule="evenodd" clip-rule="evenodd" d="M36.5284 69.7739C44.8852 72.1725 51 79.8721 51 89V100H84C95.0457 100 104 91.0457 104 80V42.5L88.2587 39.6379C84.1525 38.8914 79.9245 39.1918 75.9652 40.5116C73.9962 41.1679 71.9526 41.5748 69.8824 41.7227L66.8091 41.9422C61.6453 42.3111 56.4572 41.7466 51.4936 40.2759L46.7643 38.8746C45.9258 38.6262 45.0559 38.5 44.1814 38.5C39.9712 38.5 36.3118 41.3904 35.3366 45.4861L34.88 47.4038C34.6279 48.4627 34.5263 49.5517 34.578 50.639L34.9434 58.3116C34.9811 59.1028 34.9604 59.8957 34.8816 60.6839C34.6307 63.193 34.9715 65.726 35.8767 68.0795L36.5284 69.7739ZM104 35.5V20C104 17.7624 103.633 15.6107 102.955 13.6018L98.4587 18.3408C92.864 24.2379 96.013 33.9889 104 35.5ZM98.3956 6.11598C96.5477 4.20033 94.3209 2.65257 91.8359 1.59333L75.1884 17.5324C71.9666 20.6171 67.3693 21.7985 63.0594 20.6492L59.0244 19.5732C56.5789 18.921 53.9792 19.776 52.3981 21.7523C51.4931 22.8836 51 24.2893 51 25.7381V26.3968C51 27.4375 51.3375 28.45 51.9619 29.2825C52.3176 29.7568 52.7578 30.1611 53.2605 30.4753L54.023 30.9519C55.638 31.9613 57.516 32.4692 59.4196 32.4115L63.594 32.285C69.6298 32.1021 75.3614 29.5932 79.5904 25.2828L98.3956 6.11598ZM78.625 0H73L68.0829 6.55609C67.4502 7.39975 67.4883 8.56968 68.1746 9.37037C69.1114 10.4633 70.8193 10.4076 71.6829 9.25609L78.625 0ZM59 0H51V1.26393C51 3.24721 52.1205 5.06027 53.8944 5.94721L54.421 6.21049C54.8018 6.40088 55.2216 6.5 55.6474 6.5C57.0009 6.5 58.1519 5.51248 58.3577 4.17472L59 0ZM38 0H32.5L34.7726 7.67017C35.7748 11.0523 34.2305 14.6691 31.0947 16.2845L27.2357 18.2725C23.9894 19.9448 23.734 24.4893 26.7724 26.5149C27.2535 26.8357 27.7887 27.0666 28.3521 27.1966L29.055 27.3588C32.1126 28.0644 35.3138 27.0767 37.4423 24.7709L38.6123 23.5034C39.5304 22.5087 40.2687 21.362 40.7939 20.1144L42.1625 16.864C43.2636 14.2488 42.5959 11.2236 40.4963 9.31486C39.2155 8.15048 38.4357 6.53513 38.3205 4.80799L38 0ZM15.1145 69L17.4877 63.1976C18.4924 60.7411 19.2039 58.1747 19.6075 55.5515L19.8274 54.1216C19.9423 53.375 20 52.6206 20 51.8652C20 49.6499 19.504 47.4626 18.5484 45.464L17.5 43.2714C15.0983 39.0684 10.3248 36.8157 5.55366 37.6337L4 37.9V69H15.1145ZM4 30.7174C7.9597 27.8346 9.05825 22.0777 5.91053 17.8807L4.42159 15.8955C4.14526 17.2203 4 18.5932 4 20V30.7174ZM8.60438 7.23302L12.3565 10.323C14.0086 11.6835 16.2302 12.131 18.2801 11.516C21.8906 10.4328 23.7943 6.48584 22.3944 2.98598L21.2737 0.184264C16.1963 0.87632 11.7251 3.47399 8.60438 7.23302Z" fill="url(#paint0_linear)"/>
</g>
<defs>
<filter id="filter0_d" x="0" y="0" width="108" height="108" filterUnits="userSpaceOnUse" color-interpolation-filters="sRGB">
<feFlood flood-opacity="0" result="BackgroundImageFix"/>
<feColorMatrix in="SourceAlpha" type="matrix" values="0 0 0 0 0 0 0 0 0 0 0 0 0 0 0 0 0 0 127 0" result="hardAlpha"/>
<feOffset dy="4"/>
<feGaussianBlur stdDeviation="2"/>
<feComposite in2="hardAlpha" operator="out"/>
<feColorMatrix type="matrix" values="0 0 0 0 0 0 0 0 0 0 0 0 0 0 0 0 0 0 0.25 0"/>
<feBlend mode="normal" in2="BackgroundImageFix" result="effect1_dropShadow"/>
<feBlend mode="normal" in="SourceGraphic" in2="effect1_dropShadow" result="shape"/>
</filter>
<linearGradient id="paint0_linear" x1="-1" y1="15" x2="122" y2="100.5" gradientUnits="userSpaceOnUse">
<stop stop-color="#4749D7"/>
<stop offset="0.135417" stop-color="#6B7FDA"/>
<stop offset="0.354167" stop-color="#719FE8"/>
<stop offset="0.572917" stop-color="#6CD6FC"/>
<stop offset="1" stop-color="#7FD7EB"/>
</linearGradient>
</defs>
</svg>
