<svg width="100" height="100" viewBox="0 0 100 100" fill="none" xmlns="http://www.w3.org/2000/svg">
<rect width="100" height="100" rx="20" fill="white"/>
<path fill-rule="evenodd" clip-rule="evenodd" d="M32.5284 69.7739C40.8852 72.1725 47 79.8721 47 89V100H80C91.0457 100 100 91.0457 100 80V42.5L84.2587 39.6379C80.1525 38.8914 75.9245 39.1918 71.9652 40.5116C69.9962 41.1679 67.9526 41.5748 65.8824 41.7227L62.8091 41.9422C57.6453 42.3111 52.4572 41.7466 47.4936 40.2759L42.7643 38.8746C41.9258 38.6262 41.0559 38.5 40.1814 38.5C35.9712 38.5 32.3118 41.3904 31.3366 45.4861L30.88 47.4038C30.6279 48.4627 30.5263 49.5517 30.578 50.639L30.9434 58.3116C30.9811 59.1028 30.9604 59.8957 30.8816 60.6839C30.6307 63.193 30.9715 65.726 31.8767 68.0795L32.5284 69.7739ZM100 35.5V20C100 17.7624 99.6325 15.6107 98.9547 13.6018L94.4587 18.3408C88.864 24.2379 92.013 33.9889 100 35.5ZM94.3956 6.11598C92.5477 4.20033 90.3209 2.65257 87.8359 1.59333L71.1884 17.5324C67.9666 20.6171 63.3693 21.7985 59.0594 20.6492L55.0244 19.5732C52.5789 18.921 49.9792 19.776 48.3981 21.7523C47.4931 22.8836 47 24.2893 47 25.7381V26.3968C47 27.4375 47.3375 28.45 47.9619 29.2825C48.3176 29.7568 48.7578 30.1611 49.2605 30.4753L50.023 30.9519C51.638 31.9613 53.516 32.4692 55.4196 32.4115L59.594 32.285C65.6298 32.1021 71.3614 29.5932 75.5904 25.2828L94.3956 6.11598ZM74.625 0H69L64.0829 6.55609C63.4502 7.39975 63.4883 8.56968 64.1746 9.37037C65.1114 10.4633 66.8193 10.4076 67.6829 9.25609L74.625 0ZM55 0H47V1.26393C47 3.24721 48.1205 5.06027 49.8944 5.94721L50.421 6.21049C50.8018 6.40088 51.2216 6.5 51.6474 6.5C53.0009 6.5 54.1519 5.51248 54.3577 4.17472L55 0ZM34 0H28.5L30.7726 7.67017C31.7748 11.0523 30.2305 14.6691 27.0947 16.2845L23.2357 18.2725C19.9894 19.9448 19.734 24.4893 22.7724 26.5149C23.2535 26.8357 23.7887 27.0666 24.3521 27.1966L25.055 27.3588C28.1126 28.0644 31.3138 27.0767 33.4423 24.7709L34.6123 23.5034C35.5304 22.5087 36.2687 21.362 36.7939 20.1144L38.1625 16.864C39.2636 14.2488 38.5959 11.2236 36.4963 9.31486C35.2155 8.15048 34.4357 6.53513 34.3205 4.80799L34 0ZM11.1145 69L13.4877 63.1976C14.4924 60.7411 15.2039 58.1747 15.6075 55.5515L15.8274 54.1216C15.9423 53.375 16 52.6206 16 51.8652C16 49.6499 15.504 47.4626 14.5484 45.464L13.5 43.2714C11.0983 39.0684 6.32485 36.8157 1.55366 37.6337L0 37.9V69H11.1145ZM0 30.7174C3.9597 27.8346 5.05825 22.0777 1.91053 17.8807L0.421587 15.8955C0.145256 17.2203 0 18.5932 0 20V30.7174ZM4.60438 7.23302L8.35653 10.323C10.0086 11.6835 12.2302 12.131 14.2801 11.516C17.8906 10.4328 19.7943 6.48584 18.3944 2.98598L17.2737 0.184264C12.1963 0.87632 7.72507 3.47399 4.60438 7.23302Z" fill="url(#paint0_linear)"/>
<defs>
<linearGradient id="paint0_linear" x1="-5" y1="15" x2="118" y2="100.5" gradientUnits="userSpaceOnUse">
<stop stop-color="#4749D7"/>
<stop offset="0.135417" stop-color="#6B7FDA"/>
<stop offset="0.354167" stop-color="#719FE8"/>
<stop offset="0.572917" stop-color="#6CD6FC"/>
<stop offset="1" stop-color="#7FD7EB"/>
</linearGradient>
</defs>
</svg>
