<svg width="108" height="103" viewBox="0 0 108 103" fill="none" xmlns="http://www.w3.org/2000/svg">
<rect x="4.5" y="0.5" width="99" height="99" rx="19.5" fill="black" stroke="black"/>
<g filter="url(#filter0_d)">
<mask id="path-2-inside-1" fill="white">
<path fill-rule="evenodd" clip-rule="evenodd" d="M36.5284 69.7739C44.8852 72.1725 51 79.8721 51 89V100H84C95.0457 100 104 91.0457 104 80V42.5L88.2587 39.6379C84.1525 38.8914 79.9245 39.1918 75.9652 40.5116C73.9962 41.1679 71.9526 41.5748 69.8824 41.7227L66.8091 41.9422C61.6453 42.3111 56.4572 41.7466 51.4936 40.2759L46.7643 38.8746C45.9258 38.6262 45.0559 38.5 44.1814 38.5C39.9712 38.5 36.3118 41.3904 35.3366 45.4861L34.88 47.4038C34.6279 48.4627 34.5263 49.5517 34.578 50.639L34.9434 58.3116C34.9811 59.1028 34.9604 59.8957 34.8816 60.6839C34.6307 63.193 34.9715 65.726 35.8767 68.0795L36.5284 69.7739ZM104 35.5V20C104 17.7624 103.633 15.6107 102.955 13.6018L98.4587 18.3408C92.864 24.2379 96.013 33.9889 104 35.5ZM98.3956 6.11598C96.5477 4.20033 94.3209 2.65257 91.8359 1.59333L75.1884 17.5324C71.9666 20.6171 67.3693 21.7985 63.0594 20.6492L59.0244 19.5732C56.5789 18.921 53.9792 19.776 52.3981 21.7523C51.4931 22.8836 51 24.2893 51 25.7381V26.3968C51 27.4375 51.3375 28.45 51.9619 29.2825C52.3176 29.7568 52.7578 30.1611 53.2605 30.4753L54.023 30.9519C55.638 31.9613 57.516 32.4692 59.4196 32.4115L63.594 32.285C69.6298 32.1021 75.3614 29.5932 79.5904 25.2828L98.3956 6.11598ZM78.625 0H73L68.0829 6.55609C67.4502 7.39975 67.4883 8.56968 68.1746 9.37037C69.1114 10.4633 70.8193 10.4076 71.6829 9.25609L78.625 0ZM59 0H51V1.26393C51 3.24721 52.1205 5.06027 53.8944 5.94721L54.421 6.21049C54.8018 6.40088 55.2216 6.5 55.6474 6.5C57.0009 6.5 58.1519 5.51248 58.3577 4.17472L59 0ZM38 0H32.5L34.7726 7.67017C35.7748 11.0523 34.2305 14.6691 31.0947 16.2845L27.2357 18.2725C23.9894 19.9448 23.734 24.4893 26.7724 26.5149C27.2535 26.8357 27.7887 27.0666 28.3521 27.1966L29.055 27.3588C32.1126 28.0644 35.3138 27.0767 37.4423 24.7709L38.6123 23.5034C39.5304 22.5087 40.2687 21.362 40.7939 20.1144L42.1625 16.864C43.2636 14.2488 42.5959 11.2236 40.4963 9.31486C39.2155 8.15048 38.4357 6.53513 38.3205 4.80799L38 0ZM15.1145 69L17.4877 63.1976C18.4924 60.7411 19.2039 58.1747 19.6075 55.5515L19.8274 54.1216C19.9423 53.375 20 52.6206 20 51.8652C20 49.6499 19.504 47.4626 18.5484 45.464L17.5 43.2714C15.0983 39.0684 10.3248 36.8157 5.55366 37.6337L4 37.9V69H15.1145ZM4 30.7174C7.9597 27.8346 9.05825 22.0777 5.91053 17.8807L4.42159 15.8955C4.14526 17.2203 4 18.5932 4 20V30.7174ZM8.60438 7.23302L12.3565 10.323C14.0086 11.6835 16.2302 12.131 18.2801 11.516C21.8906 10.4328 23.7943 6.48584 22.3944 2.98598L21.2737 0.184264C16.1963 0.87632 11.7251 3.47399 8.60438 7.23302Z"/>
</mask>
<path fill-rule="evenodd" clip-rule="evenodd" d="M36.5284 69.7739C44.8852 72.1725 51 79.8721 51 89V100H84C95.0457 100 104 91.0457 104 80V42.5L88.2587 39.6379C84.1525 38.8914 79.9245 39.1918 75.9652 40.5116C73.9962 41.1679 71.9526 41.5748 69.8824 41.7227L66.8091 41.9422C61.6453 42.3111 56.4572 41.7466 51.4936 40.2759L46.7643 38.8746C45.9258 38.6262 45.0559 38.5 44.1814 38.5C39.9712 38.5 36.3118 41.3904 35.3366 45.4861L34.88 47.4038C34.6279 48.4627 34.5263 49.5517 34.578 50.639L34.9434 58.3116C34.9811 59.1028 34.9604 59.8957 34.8816 60.6839C34.6307 63.193 34.9715 65.726 35.8767 68.0795L36.5284 69.7739ZM104 35.5V20C104 17.7624 103.633 15.6107 102.955 13.6018L98.4587 18.3408C92.864 24.2379 96.013 33.9889 104 35.5ZM98.3956 6.11598C96.5477 4.20033 94.3209 2.65257 91.8359 1.59333L75.1884 17.5324C71.9666 20.6171 67.3693 21.7985 63.0594 20.6492L59.0244 19.5732C56.5789 18.921 53.9792 19.776 52.3981 21.7523C51.4931 22.8836 51 24.2893 51 25.7381V26.3968C51 27.4375 51.3375 28.45 51.9619 29.2825C52.3176 29.7568 52.7578 30.1611 53.2605 30.4753L54.023 30.9519C55.638 31.9613 57.516 32.4692 59.4196 32.4115L63.594 32.285C69.6298 32.1021 75.3614 29.5932 79.5904 25.2828L98.3956 6.11598ZM78.625 0H73L68.0829 6.55609C67.4502 7.39975 67.4883 8.56968 68.1746 9.37037C69.1114 10.4633 70.8193 10.4076 71.6829 9.25609L78.625 0ZM59 0H51V1.26393C51 3.24721 52.1205 5.06027 53.8944 5.94721L54.421 6.21049C54.8018 6.40088 55.2216 6.5 55.6474 6.5C57.0009 6.5 58.1519 5.51248 58.3577 4.17472L59 0ZM38 0H32.5L34.7726 7.67017C35.7748 11.0523 34.2305 14.6691 31.0947 16.2845L27.2357 18.2725C23.9894 19.9448 23.734 24.4893 26.7724 26.5149C27.2535 26.8357 27.7887 27.0666 28.3521 27.1966L29.055 27.3588C32.1126 28.0644 35.3138 27.0767 37.4423 24.7709L38.6123 23.5034C39.5304 22.5087 40.2687 21.362 40.7939 20.1144L42.1625 16.864C43.2636 14.2488 42.5959 11.2236 40.4963 9.31486C39.2155 8.15048 38.4357 6.53513 38.3205 4.80799L38 0ZM15.1145 69L17.4877 63.1976C18.4924 60.7411 19.2039 58.1747 19.6075 55.5515L19.8274 54.1216C19.9423 53.375 20 52.6206 20 51.8652C20 49.6499 19.504 47.4626 18.5484 45.464L17.5 43.2714C15.0983 39.0684 10.3248 36.8157 5.55366 37.6337L4 37.9V69H15.1145ZM4 30.7174C7.9597 27.8346 9.05825 22.0777 5.91053 17.8807L4.42159 15.8955C4.14526 17.2203 4 18.5932 4 20V30.7174ZM8.60438 7.23302L12.3565 10.323C14.0086 11.6835 16.2302 12.131 18.2801 11.516C21.8906 10.4328 23.7943 6.48584 22.3944 2.98598L21.2737 0.184264C16.1963 0.87632 11.7251 3.47399 8.60438 7.23302Z" fill="white"/>
<path d="M36.5284 69.7739L35.5951 70.1329L35.7739 70.5977L36.2525 70.7351L36.5284 69.7739ZM51 100H50V101H51V100ZM104 42.5H105V41.6654L104.179 41.5161L104 42.5ZM88.2587 39.6379L88.4376 38.6541L88.4376 38.6541L88.2587 39.6379ZM75.9652 40.5116L76.2814 41.4603L76.2814 41.4603L75.9652 40.5116ZM69.8824 41.7227L69.8111 40.7252L69.8111 40.7252L69.8824 41.7227ZM66.8091 41.9422L66.8804 42.9397L66.8804 42.9397L66.8091 41.9422ZM51.4936 40.2759L51.2095 41.2347L51.2095 41.2347L51.4936 40.2759ZM46.7643 38.8746L46.4802 39.8334L46.4802 39.8334L46.7643 38.8746ZM35.3366 45.4861L34.3638 45.2545L34.3638 45.2545L35.3366 45.4861ZM34.88 47.4038L35.8529 47.6354L35.8529 47.6354L34.88 47.4038ZM34.578 50.639L35.5769 50.5914L35.5769 50.5914L34.578 50.639ZM34.9434 58.3116L35.9423 58.264L35.9423 58.264L34.9434 58.3116ZM34.8816 60.6839L33.8866 60.5844L33.8866 60.5844L34.8816 60.6839ZM35.8767 68.0795L34.9434 68.4385L34.9434 68.4385L35.8767 68.0795ZM104 35.5L103.814 36.4826L105 36.7069V35.5H104ZM102.955 13.6018L103.902 13.2821L103.372 11.7095L102.229 12.9135L102.955 13.6018ZM98.4587 18.3408L97.7332 17.6526L97.7332 17.6526L98.4587 18.3408ZM98.3956 6.11598L99.1095 6.81632L99.7908 6.12187L99.1153 5.42169L98.3956 6.11598ZM91.8359 1.59333L92.228 0.673418L91.6209 0.414664L91.1443 0.871026L91.8359 1.59333ZM75.1884 17.5324L75.88 18.2547L75.88 18.2547L75.1884 17.5324ZM63.0594 20.6492L63.3171 19.6829L63.3171 19.6829L63.0594 20.6492ZM59.0244 19.5732L58.7667 20.5394L58.7667 20.5394L59.0244 19.5732ZM52.3981 21.7523L53.179 22.377L53.179 22.377L52.3981 21.7523ZM51.9619 29.2825L51.1619 29.8825L51.1619 29.8825L51.9619 29.2825ZM53.2605 30.4753L52.7305 31.3233L52.7305 31.3233L53.2605 30.4753ZM54.023 30.9519L54.553 30.1039L54.553 30.1039L54.023 30.9519ZM59.4196 32.4115L59.3894 31.412L59.3894 31.412L59.4196 32.4115ZM63.594 32.285L63.5637 31.2855L63.5637 31.2855L63.594 32.285ZM79.5904 25.2828L78.8766 24.5825L78.8766 24.5825L79.5904 25.2828ZM78.625 0L79.425 0.6L80.625 -1L78.625 -1V0ZM73 0V-1H72.5L72.2 -0.6L73 0ZM68.0829 6.55609L68.8829 7.15609L68.8829 7.15609L68.0829 6.55609ZM68.1746 9.37037L68.9339 8.71958L68.9339 8.71958L68.1746 9.37037ZM71.6829 9.25609L70.8829 8.65609L70.8829 8.65609L71.6829 9.25609ZM59 0L59.9884 0.152057L60.1656 -1H59V0ZM51 0V-1H50V0H51ZM53.8944 5.94721L53.4472 6.84164L53.4472 6.84164L53.8944 5.94721ZM58.3577 4.17472L59.3461 4.32678L59.3461 4.32678L58.3577 4.17472ZM38 0L38.9978 -0.0665192L38.9356 -1H38V0ZM32.5 0V-1H31.1607L31.5412 0.284088L32.5 0ZM34.7726 7.67017L33.8138 7.95426L33.8138 7.95426L34.7726 7.67017ZM31.0947 16.2845L31.5527 17.1735L31.5527 17.1735L31.0947 16.2845ZM27.2357 18.2725L26.7778 17.3835L26.7778 17.3835L27.2357 18.2725ZM26.7724 26.5149L26.2177 27.347L26.2177 27.347L26.7724 26.5149ZM28.3521 27.1966L28.1272 28.171L28.1272 28.171L28.3521 27.1966ZM29.055 27.3588L29.2798 26.3844L29.2798 26.3844L29.055 27.3588ZM37.4423 24.7709L36.7075 24.0926L36.7075 24.0926L37.4423 24.7709ZM38.6123 23.5034L39.3471 24.1817L39.3471 24.1817L38.6123 23.5034ZM40.7939 20.1144L41.7156 20.5024L41.7156 20.5024L40.7939 20.1144ZM42.1625 16.864L43.0842 17.252L43.0842 17.252L42.1625 16.864ZM40.4963 9.31486L41.169 8.57492L41.169 8.57492L40.4963 9.31486ZM38.3205 4.80799L39.3183 4.74147L39.3183 4.74147L38.3205 4.80799ZM17.4877 63.1976L18.4133 63.5762L18.4133 63.5762L17.4877 63.1976ZM15.1145 69V70H15.7859L16.0401 69.3786L15.1145 69ZM19.6075 55.5515L20.5958 55.7036L20.5958 55.7036L19.6075 55.5515ZM19.8274 54.1216L18.8391 53.9696L18.8391 53.9696L19.8274 54.1216ZM18.5484 45.464L17.6462 45.8954L17.6462 45.8954L18.5484 45.464ZM17.5 43.2714L18.4022 42.8401L18.3864 42.8071L18.3682 42.7753L17.5 43.2714ZM5.55366 37.6337L5.72262 38.6193L5.72262 38.6193L5.55366 37.6337ZM4 37.9L3.83104 36.9144L3 37.0568V37.9H4ZM4 69H3V70H4V69ZM5.91053 17.8807L6.71053 17.2807L6.71053 17.2807L5.91053 17.8807ZM4 30.7174H3V32.6824L4.58857 31.5259L4 30.7174ZM4.42159 15.8955L5.22159 15.2955L3.89434 13.5258L3.44266 15.6913L4.42159 15.8955ZM12.3565 10.323L11.7208 11.095L11.7208 11.095L12.3565 10.323ZM8.60438 7.23302L7.83497 6.59426L7.19368 7.36672L7.96867 8.00495L8.60438 7.23302ZM18.2801 11.516L18.5674 12.4738L18.5674 12.4738L18.2801 11.516ZM22.3944 2.98598L21.4659 3.35737L21.4659 3.35737L22.3944 2.98598ZM21.2737 0.184264L22.2022 -0.187126L21.9122 -0.912012L21.1387 -0.806574L21.2737 0.184264ZM36.2525 70.7351C44.192 73.0139 50 80.33 50 89H52C52 79.4143 45.5783 71.331 36.8043 68.8127L36.2525 70.7351ZM50 89V100H52V89H50ZM51 101H84V99H51V101ZM84 101C95.598 101 105 91.598 105 80H103C103 90.4934 94.4934 99 84 99V101ZM105 80V42.5H103V80H105ZM88.0798 40.6218L103.821 43.4839L104.179 41.5161L88.4376 38.6541L88.0798 40.6218ZM76.2814 41.4603C80.0812 40.1937 84.139 39.9053 88.0798 40.6218L88.4376 38.6541C84.166 37.8774 79.7677 38.19 75.6489 39.5629L76.2814 41.4603ZM69.9536 42.7201C72.1072 42.5663 74.2331 42.1431 76.2814 41.4603L75.6489 39.5629C73.7592 40.1928 71.798 40.5833 69.8111 40.7252L69.9536 42.7201ZM66.8804 42.9397L69.9536 42.7201L69.8111 40.7252L66.7379 40.9447L66.8804 42.9397ZM51.2095 41.2347C56.2883 42.7395 61.5967 43.3171 66.8804 42.9397L66.7379 40.9447C61.6938 41.305 56.6262 40.7537 51.7776 39.3171L51.2095 41.2347ZM46.4802 39.8334L51.2095 41.2347L51.7776 39.3171L47.0484 37.9158L46.4802 39.8334ZM44.1814 39.5C44.9597 39.5 45.734 39.6123 46.4802 39.8334L47.0484 37.9158C46.1177 37.64 45.1521 37.5 44.1814 37.5V39.5ZM36.3095 45.7177C37.1774 42.0725 40.4343 39.5 44.1814 39.5V37.5C39.5082 37.5 35.4462 40.7084 34.3638 45.2545L36.3095 45.7177ZM35.8529 47.6354L36.3095 45.7177L34.3638 45.2545L33.9072 47.1722L35.8529 47.6354ZM35.5769 50.5914C35.5296 49.598 35.6225 48.6029 35.8529 47.6354L33.9072 47.1722C33.6334 48.3224 33.5229 49.5055 33.5792 50.6865L35.5769 50.5914ZM35.9423 58.264L35.5769 50.5914L33.5792 50.6865L33.9445 58.3591L35.9423 58.264ZM35.8766 60.7834C35.9604 59.9463 35.9823 59.1043 35.9423 58.264L33.9445 58.3591C33.9799 59.1013 33.9605 59.8451 33.8866 60.5844L35.8766 60.7834ZM36.8101 67.7205C35.961 65.5129 35.6413 63.1369 35.8766 60.7834L33.8866 60.5844C33.6201 63.249 33.9821 65.9391 34.9434 68.4385L36.8101 67.7205ZM37.4618 69.4149L36.8101 67.7205L34.9434 68.4385L35.5951 70.1329L37.4618 69.4149ZM105 35.5V20H103V35.5H105ZM105 20C105 17.6523 104.614 15.3926 103.902 13.2821L102.007 13.9215C102.651 15.8287 103 17.8725 103 20H105ZM99.1842 19.0291L103.68 14.2901L102.229 12.9135L97.7332 17.6526L99.1842 19.0291ZM104.186 34.5174C96.9766 33.1535 94.1343 24.352 99.1842 19.0291L97.7332 17.6526C91.5938 24.1239 95.0494 34.8244 103.814 36.4826L104.186 34.5174ZM99.1153 5.42169C97.1757 3.41105 94.8379 1.78592 92.228 0.673418L91.4437 2.51325C93.8038 3.51921 95.9196 4.9896 97.6759 6.81026L99.1153 5.42169ZM75.88 18.2547L92.5274 2.31564L91.1443 0.871026L74.4969 16.8101L75.88 18.2547ZM62.8018 21.6154C67.4489 22.8547 72.406 21.5808 75.88 18.2547L74.4969 16.81C71.5272 19.6534 67.2897 20.7423 63.3171 19.6829L62.8018 21.6154ZM58.7667 20.5394L62.8018 21.6154L63.3171 19.6829L59.282 18.6069L58.7667 20.5394ZM53.179 22.377C54.5123 20.7105 56.7045 19.9895 58.7667 20.5394L59.282 18.6069C56.4533 17.8526 53.4461 18.8416 51.6173 21.1276L53.179 22.377ZM52 25.7381C52 24.5164 52.4158 23.331 53.179 22.377L51.6173 21.1276C50.5704 22.4363 50 24.0622 50 25.7381H52ZM52 26.3968V25.7381H50V26.3968H52ZM52.7619 28.6825C52.2673 28.0231 52 27.2211 52 26.3968H50C50 27.6538 50.4077 28.8769 51.1619 29.8825L52.7619 28.6825ZM53.7905 29.6273C53.3923 29.3785 53.0436 29.0582 52.7619 28.6825L51.1619 29.8825C51.5915 30.4554 52.1233 30.9438 52.7305 31.3233L53.7905 29.6273ZM54.553 30.1039L53.7905 29.6273L52.7305 31.3233L53.493 31.7999L54.553 30.1039ZM59.3894 31.412C57.6834 31.4637 56.0003 31.0085 54.553 30.1039L53.493 31.7999C55.2757 32.9141 57.3487 33.4747 59.4499 33.4111L59.3894 31.412ZM63.5637 31.2855L59.3894 31.412L59.4499 33.4111L63.6243 33.2846L63.5637 31.2855ZM78.8766 24.5825C74.8282 28.7087 69.3416 31.1104 63.5637 31.2855L63.6243 33.2846C69.918 33.0939 75.8945 30.4778 80.3042 25.9832L78.8766 24.5825ZM97.6818 5.41564L78.8766 24.5825L80.3042 25.9832L99.1095 6.81632L97.6818 5.41564ZM78.625 -1H73V1H78.625V-1ZM68.8829 7.15609L73.8 0.6L72.2 -0.6L67.2829 5.95609L68.8829 7.15609ZM68.9339 8.71958C68.5526 8.27475 68.5314 7.62479 68.8829 7.15609L67.2829 5.95609C66.369 7.17471 66.424 8.86461 67.4154 10.0212L68.9339 8.71958ZM70.8829 8.65609C70.4031 9.29584 69.4543 9.32675 68.9339 8.71958L67.4153 10.0212C68.7685 11.5998 71.2354 11.5194 72.4829 9.85609L70.8829 8.65609ZM77.825 -0.6L70.8829 8.65609L72.4829 9.85609L79.425 0.6L77.825 -0.6ZM59 -1H51V1H59V-1ZM52 1.26393V0H50V1.26393H52ZM54.3416 5.05279C52.9065 4.33523 52 2.86844 52 1.26393H50C50 3.62598 51.3345 5.7853 53.4472 6.84164L54.3416 5.05279ZM54.8682 5.31607L54.3416 5.05279L53.4472 6.84164L53.9738 7.10492L54.8682 5.31607ZM55.6474 5.5C55.3769 5.5 55.1101 5.43703 54.8682 5.31607L53.9738 7.10492C54.4934 7.36474 55.0664 7.5 55.6474 7.5V5.5ZM57.3694 4.02266C57.2386 4.87259 56.5073 5.5 55.6474 5.5V7.5C57.4944 7.5 59.0652 6.15237 59.3461 4.32678L57.3694 4.02266ZM58.0116 -0.152057L57.3694 4.02266L59.3461 4.32678L59.9884 0.152057L58.0116 -0.152057ZM38 -1H32.5V1H38V-1ZM35.7314 7.38608L33.4588 -0.284088L31.5412 0.284088L33.8138 7.95426L35.7314 7.38608ZM31.5527 17.1735C35.1155 15.3381 36.87 11.2288 35.7314 7.38608L33.8138 7.95426C34.6795 10.8758 33.3456 14.0001 30.6368 15.3956L31.5527 17.1735ZM27.6937 19.1615L31.5527 17.1735L30.6368 15.3956L26.7778 17.3835L27.6937 19.1615ZM27.3271 25.6829C24.9231 24.0802 25.1252 20.4846 27.6937 19.1615L26.7778 17.3835C22.8536 19.4051 22.5448 24.8984 26.2177 27.347L27.3271 25.6829ZM28.5769 26.2222C28.1312 26.1194 27.7077 25.9366 27.3271 25.6829L26.2177 27.347C26.7992 27.7347 27.4462 28.0139 28.1272 28.171L28.5769 26.2222ZM29.2798 26.3844L28.5769 26.2222L28.1272 28.171L28.8301 28.3332L29.2798 26.3844ZM36.7075 24.0926C34.8226 26.1346 31.9876 27.0093 29.2798 26.3844L28.8301 28.3332C32.2376 29.1196 35.8051 28.0188 38.1771 25.4491L36.7075 24.0926ZM37.8775 22.8251L36.7075 24.0926L38.1771 25.4491L39.3471 24.1817L37.8775 22.8251ZM39.8723 19.7263C39.392 20.8671 38.717 21.9156 37.8775 22.8251L39.3471 24.1817C40.3439 23.1018 41.1453 21.8569 41.7156 20.5024L39.8723 19.7263ZM41.2409 16.4759L39.8723 19.7263L41.7156 20.5024L43.0842 17.252L41.2409 16.4759ZM39.8237 10.0548C41.6095 11.6783 42.1775 14.2515 41.2409 16.4759L43.0842 17.252C44.3498 14.2461 43.5823 10.7688 41.169 8.57492L39.8237 10.0548ZM37.3227 4.87451C37.4551 6.85972 38.3515 8.71644 39.8237 10.0548L41.169 8.57492C40.0796 7.58452 39.4163 6.21054 39.3183 4.74147L37.3227 4.87451ZM37.0022 0.0665192L37.3227 4.87451L39.3183 4.74147L38.9978 -0.0665192L37.0022 0.0665192ZM16.5621 62.8191L14.1889 68.6214L16.0401 69.3786L18.4133 63.5762L16.5621 62.8191ZM18.6191 55.3995C18.2275 57.9449 17.537 60.4353 16.5621 62.8191L18.4133 63.5762C19.4477 61.0469 20.1803 58.4045 20.5958 55.7036L18.6191 55.3995ZM18.8391 53.9696L18.6191 55.3995L20.5958 55.7036L20.8158 54.2737L18.8391 53.9696ZM19 51.8652C19 52.5697 18.9462 53.2732 18.8391 53.9696L20.8158 54.2737C20.9384 53.4767 21 52.6715 21 51.8652H19ZM17.6462 45.8954C18.5374 47.7593 19 49.7991 19 51.8652H21C21 49.5006 20.4706 47.1659 19.4505 45.0326L17.6462 45.8954ZM16.5978 43.7028L17.6462 45.8954L19.4505 45.0326L18.4022 42.8401L16.5978 43.7028ZM5.72262 38.6193C10.0796 37.8724 14.4386 39.9295 16.6318 43.7676L18.3682 42.7753C15.758 38.2074 10.5701 35.7591 5.3847 36.648L5.72262 38.6193ZM4.16896 38.8856L5.72262 38.6193L5.3847 36.648L3.83104 36.9144L4.16896 38.8856ZM3 37.9V69H5V37.9H3ZM4 70H15.1145V68H4V70ZM5.11053 18.4807C7.91058 22.2141 6.93781 27.3417 3.41143 29.909L4.58857 31.5259C8.98159 28.3276 10.2059 21.9412 6.71053 17.2807L5.11053 18.4807ZM3.62159 16.4955L5.11053 18.4807L6.71053 17.2807L5.22159 15.2955L3.62159 16.4955ZM3.44266 15.6913C3.1524 17.0828 3 18.5242 3 20H5C5 18.6622 5.13811 17.3577 5.40052 16.0996L3.44266 15.6913ZM3 20V30.7174H5V20H3ZM12.9922 9.5511L9.24009 6.46109L7.96867 8.00495L11.7208 11.095L12.9922 9.5511ZM17.9927 10.5582C16.2622 11.0773 14.3869 10.6996 12.9922 9.5511L11.7208 11.095C13.6303 12.6675 16.1981 13.1846 18.5674 12.4738L17.9927 10.5582ZM21.4659 3.35737C22.6477 6.31185 21.0406 9.64379 17.9927 10.5582L18.5674 12.4738C22.7405 11.2219 24.941 6.65983 23.3229 2.61459L21.4659 3.35737ZM20.3452 0.555655L21.4659 3.35737L23.3229 2.61459L22.2022 -0.187126L20.3452 0.555655ZM21.1387 -0.806574C15.8048 -0.0795727 11.1101 2.64916 7.83497 6.59426L9.37379 7.87177C12.34 4.29881 16.5877 1.83221 21.4088 1.1751L21.1387 -0.806574Z" fill="black" mask="url(#path-2-inside-1)"/>
</g>
<defs>
<filter id="filter0_d" x="0" y="0" width="108" height="108" filterUnits="userSpaceOnUse" color-interpolation-filters="sRGB">
<feFlood flood-opacity="0" result="BackgroundImageFix"/>
<feColorMatrix in="SourceAlpha" type="matrix" values="0 0 0 0 0 0 0 0 0 0 0 0 0 0 0 0 0 0 127 0" result="hardAlpha"/>
<feOffset dy="4"/>
<feGaussianBlur stdDeviation="2"/>
<feComposite in2="hardAlpha" operator="out"/>
<feColorMatrix type="matrix" values="0 0 0 0 0 0 0 0 0 0 0 0 0 0 0 0 0 0 0.25 0"/>
<feBlend mode="normal" in2="BackgroundImageFix" result="effect1_dropShadow"/>
<feBlend mode="normal" in="SourceGraphic" in2="effect1_dropShadow" result="shape"/>
</filter>
</defs>
</svg>
