<?xml version="1.0" encoding="utf-8"?>
<!-- Generator: Adobe Illustrator 18.0.0, SVG Export Plug-In . SVG Version: 6.00 Build 0)  -->
<!DOCTYPE svg PUBLIC "-//W3C//DTD SVG 1.1//EN" "http://www.w3.org/Graphics/SVG/1.1/DTD/svg11.dtd" [
	<!ENTITY ns_flows "http://ns.adobe.com/Flows/1.0/">
	<!ENTITY ns_extend "http://ns.adobe.com/Extensibility/1.0/">
	<!ENTITY ns_ai "http://ns.adobe.com/AdobeIllustrator/10.0/">
	<!ENTITY ns_graphs "http://ns.adobe.com/Graphs/1.0/">
]>
<svg version="1.1" id="Layer_1" xmlns:x="&ns_extend;" xmlns:i="&ns_ai;" xmlns:graph="&ns_graphs;"
	 xmlns="http://www.w3.org/2000/svg" xmlns:xlink="http://www.w3.org/1999/xlink" xmlns:a="http://ns.adobe.com/AdobeSVGViewerExtensions/3.0/"
	 x="0px" y="0px" viewBox="0 0 1400 980" enable-background="new 0 0 1400 980" xml:space="preserve">
<g>
	<defs>
		<rect id="SVGID_1_" width="1400" height="980"/>
	</defs>
	<clipPath id="SVGID_2_">
		<use xlink:href="#SVGID_1_"  overflow="visible"/>
	</clipPath>
	<rect clip-path="url(#SVGID_2_)" fill="#F17193" width="1400" height="811.8"/>
	<rect y="758.1" clip-path="url(#SVGID_2_)" fill="#B75061" width="1402" height="34.7"/>
	<rect y="792.9" clip-path="url(#SVGID_2_)" fill="#E0607D" width="1400" height="187.1"/>
	<ellipse clip-path="url(#SVGID_2_)" fill="#CA5868" cx="740.4" cy="904.8" rx="177" ry="37"/>
	<ellipse clip-path="url(#SVGID_2_)" fill="#CA5868" cx="345.6" cy="904.6" rx="145.9" ry="30.5"/>
	<ellipse clip-path="url(#SVGID_2_)" fill="#CA5868" cx="1219.1" cy="835.1" rx="246.1" ry="30.9"/>
	<g clip-path="url(#SVGID_2_)">
		<linearGradient id="SVGID_3_" gradientUnits="userSpaceOnUse" x1="215.1196" y1="-240.8128" x2="215.1196" y2="351.1869">
			<stop  offset="0" style="stop-color:#C1C2BB"/>
			<stop  offset="1" style="stop-color:#FFFFFF"/>
			<a:midPointStop  offset="0" style="stop-color:#C1C2BB"/>
			<a:midPointStop  offset="0.5" style="stop-color:#C1C2BB"/>
			<a:midPointStop  offset="1" style="stop-color:#FFFFFF"/>
		</linearGradient>
		<polygon fill="url(#SVGID_3_)"  a:adobe-blending-mode="multiply" points="350.3,52.2 -115.7,383.2 -49.3,461.3 546,461.3 		"/>
		<rect x="-94.1" y="77.1" fill="#E8668F" width="421.9" height="280"/>
		<path fill="#C7596E" d="M-115.7,52.2v329.9h465.2V52.2H-115.7z M327.8,357.2H-94.1v-280h421.9V357.2z"/>
		<polygon fill="#E1638C" points="327.8,183.7 318.6,183.7 318.6,173.6 301.8,173.6 301.8,194.1 296.9,194.1 296.9,154.1 
			282.8,135.4 282.8,203.2 274.6,205.1 274.6,155.9 270,148.5 250.9,148.5 246.4,153.3 246.4,183.6 241.4,183.6 233.6,183.6 
			233.6,175.8 229.7,168.6 209.2,168.6 203.7,174.7 203.7,192 200.3,192 200.3,204.7 185.2,204.7 185.2,196.7 185.2,178.2 
			180.5,178.2 180.5,173.7 163.1,173.7 163.1,178.2 160.1,178.2 160.1,197.4 144.4,197.9 144.4,180.7 144.4,156.2 126.5,156.2 
			126.5,183.7 113.8,183.7 113.8,173.6 97,173.6 97,194.1 92.2,194.1 92.2,154.1 78.1,135.4 78.1,203.2 69.9,205.1 69.9,155.9 
			65.2,148.5 46.2,148.5 41.7,153.3 41.7,183.6 36.6,183.6 28.9,183.6 28.9,175.8 25,168.6 4.5,168.6 -1.1,174.7 -1.1,192 -4.4,192 
			-4.4,205.6 -31.4,205.6 -31.4,191.3 -47,191.3 -47,178.2 -51.8,178.2 -51.8,173.7 -69.1,173.7 -69.1,178.2 -72.1,178.2 
			-72.1,197.4 -87.8,197.9 -87.8,180.7 -87.8,156.2 -94.1,156.2 -94.1,315.1 -55.4,315.1 -47,315.1 -38.6,315.1 -31.4,315.1 
			-4.4,315.1 1.2,315.1 22.6,315.1 28.9,315.1 41.7,315.1 48.7,315.1 172.3,315.1 185.2,315.1 200.3,315.1 206.9,315.1 227.4,315.1 
			233.6,315.1 246.4,315.1 253.4,315.1 327.8,315.1 		"/>
		<polygon fill="#D85E7C" points="327.8,225.4 320.6,225.4 320.6,261.7 312,261.7 312,190.8 287,157.8 287,277.7 272.6,281.2 
			272.6,194.2 264.3,180.9 230.6,180.9 222.7,189.5 222.7,243.1 213.7,243.1 200,243.1 200,229.2 193.1,216.5 156.8,216.5 
			147,227.3 147,258 139.1,258 139.1,223.9 126.4,223.9 126.4,235.4 94,235.4 94,192.7 69.4,213.4 69.4,277.2 57.1,277.2 57.1,235 
			52.7,229.1 32.1,229.1 26.7,234 26.7,256.1 11,256.1 11,223.9 -12.6,223.9 -12.6,260 -29.3,260 -29.3,246.7 -51.4,246.7 
			-51.4,273.7 -57.7,273.7 -57.7,240.8 -71,216.3 -71,291.4 -74.2,288.2 -74.2,246.7 -80.3,236.9 -94.1,236.9 -94.1,359.3 
			327.8,359.3 		"/>
		<g opacity="0.5"  a:adobe-blending-mode="softLight">
			<polygon fill="#E76C6E"  a:adobe-blending-mode="normal" points="150.3,77.1 -32.3,357.2 17.1,357.2 199.8,77.1 			"/>
			<polygon fill="#E76C6E"  a:adobe-blending-mode="normal" points="223.1,77.1 40.5,357.2 63.8,357.2 246.5,77.1 			"/>
		</g>
	</g>
	<g clip-path="url(#SVGID_2_)">
		<path fill="#A4524B" d="M1201.2,140.8v99.9h11.8v-99.9C1207.1,137.9,1201.2,140.8,1201.2,140.8z"/>
		<rect x="1201.2" y="218.3" fill="#914351" width="11.8" height="13.8"/>
	</g>
	<g clip-path="url(#SVGID_2_)">
		<path fill="#A4524B" d="M1070.9,140.8v99.9h11.8v-99.9C1076.8,137.9,1070.9,140.8,1070.9,140.8z"/>
		<rect x="1070.9" y="218.3" fill="#914351" width="11.8" height="13.8"/>
	</g>
	<g clip-path="url(#SVGID_2_)">
		<path fill="#A4524B" d="M1385.1,141.2v99.9h23.6v-99.9C1396.9,138.2,1385.1,141.2,1385.1,141.2z"/>
		<rect x="1385.1" y="206.9" fill="#914351" width="23.6" height="13.8"/>
	</g>
	<g clip-path="url(#SVGID_2_)">
		<path fill="#A4524B" d="M1357.8,141.2v99.9h23.6v-99.9C1369.6,138.2,1357.8,141.2,1357.8,141.2z"/>
		<rect x="1357.8" y="206.9" fill="#914351" width="23.6" height="13.8"/>
	</g>
	<g clip-path="url(#SVGID_2_)">
		<path fill="#A4524B" d="M1330.5,141.2v99.9h23.6v-99.9C1342.3,138.2,1330.5,141.2,1330.5,141.2z"/>
		<rect x="1330.5" y="206.9" fill="#914351" width="23.6" height="13.8"/>
	</g>
	<g clip-path="url(#SVGID_2_)">
		<path fill="#A4524B" d="M1303.1,141.2v99.9h23.6v-99.9C1314.9,138.2,1303.1,141.2,1303.1,141.2z"/>
		<rect x="1303.1" y="206.9" fill="#914351" width="23.6" height="13.8"/>
	</g>
	<g clip-path="url(#SVGID_2_)">
		<path fill="#A4524B" d="M1275.8,141.2v99.9h23.6v-99.9C1287.6,138.2,1275.8,141.2,1275.8,141.2z"/>
		<rect x="1275.8" y="206.9" fill="#914351" width="23.6" height="13.8"/>
	</g>
	<g clip-path="url(#SVGID_2_)">
		<path fill="#A4524B" d="M1145.8,141.2v99.9h23.6v-99.9C1157.6,138.2,1145.8,141.2,1145.8,141.2z"/>
		<rect x="1145.8" y="206.9" fill="#914351" width="23.6" height="13.8"/>
	</g>
	<g clip-path="url(#SVGID_2_)">
		<path fill="#A4524B" d="M1252.7,138.8l-20,97.9l23.1,4.7l20-97.9C1264.8,138.3,1252.7,138.8,1252.7,138.8z"/>
		
			<rect x="1237.9" y="205.4" transform="matrix(0.9797 0.2003 -0.2003 0.9797 67.8586 -246.0284)" fill="#914351" width="23.6" height="13.8"/>
	</g>
	<g clip-path="url(#SVGID_2_)">
		<path fill="#A4524B" d="M1187.9,140.8v99.9h11.8v-99.9C1193.8,137.9,1187.9,140.8,1187.9,140.8z"/>
		<rect x="1187.9" y="216.5" fill="#914351" width="11.8" height="7.5"/>
	</g>
	<g clip-path="url(#SVGID_2_)">
		<path fill="#A4524B" d="M1174.7,140.8v99.9h11.8v-99.9C1180.6,137.9,1174.7,140.8,1174.7,140.8z"/>
		<rect x="1174.7" y="153" fill="#914351" width="11.8" height="7.5"/>
	</g>
	<g clip-path="url(#SVGID_2_)">
		<path fill="#A4524B" d="M1136.4,151.5l-54.1,84l9.9,6.4l54.1-84C1143,152.2,1136.4,151.5,1136.4,151.5z"/>
		
			<rect x="1126.8" y="164.4" transform="matrix(0.8405 0.5419 -0.5419 0.8405 271.8064 -586.9769)" fill="#914351" width="11.8" height="7.5"/>
	</g>
	<rect x="1213" y="241.1" clip-path="url(#SVGID_2_)" fill="#914351" width="10" height="601.5"/>
	<g clip-path="url(#SVGID_2_)">
		<rect x="1219.1" y="241.1" fill="#B75264" width="201.1" height="602"/>
		<rect x="1230.6" y="256.7" fill="#E26886" width="178.2" height="133.6"/>
		<rect x="1230.6" y="256.7" fill="#CE6079" width="178.2" height="18.9"/>
		<rect x="1230.6" y="402.4" fill="#E26886" width="178.2" height="133.6"/>
		<rect x="1230.6" y="548.1" fill="#E26886" width="178.2" height="133.6"/>
		<rect x="1230.6" y="693.8" fill="#E26886" width="178.2" height="133.6"/>
		<rect x="1230.6" y="256.7" fill="#914351" width="178.2" height="5.6"/>
		<rect x="1230.6" y="402.4" fill="#CE6079" width="178.2" height="18.9"/>
		<rect x="1230.6" y="402.4" fill="#914351" width="178.2" height="5.6"/>
		<rect x="1230.6" y="548.1" fill="#CE6079" width="178.2" height="18.9"/>
		<rect x="1230.6" y="548.1" fill="#914351" width="178.2" height="5.6"/>
		<rect x="1230.6" y="693.8" fill="#CE6079" width="178.2" height="18.9"/>
		<rect x="1230.6" y="693.8" fill="#914351" width="178.2" height="5.6"/>
		<g>
			<path fill="#EF9DC4" d="M1334.4,285.6h-29.5c-1,0-1.8,0.6-1.8,1.2v10.8c0,0.7,0.8,1.2,1.8,1.2h29.5c1,0,1.8-0.6,1.8-1.2v-10.8
				C1336.2,286.2,1335.4,285.6,1334.4,285.6z"/>
			<path fill="#914351" d="M1334.4,299.4h-29.5c-1.3,0-2.3-0.8-2.3-1.7v-10.8c0-1,1-1.7,2.3-1.7h29.5c1.3,0,2.3,0.8,2.3,1.7v10.8
				C1336.7,298.6,1335.7,299.4,1334.4,299.4z M1304.9,286.1c-0.8,0-1.3,0.4-1.3,0.7v10.8c0,0.4,0.5,0.7,1.3,0.7h29.5
				c0.8,0,1.3-0.4,1.3-0.7v-10.8c0-0.4-0.5-0.7-1.3-0.7H1304.9z"/>
		</g>
		<g>
			<path fill="#EF9DC4" d="M1334.4,430.7h-29.5c-1,0-1.8,0.6-1.8,1.2v10.8c0,0.7,0.8,1.2,1.8,1.2h29.5c1,0,1.8-0.6,1.8-1.2v-10.8
				C1336.2,431.3,1335.4,430.7,1334.4,430.7z"/>
			<path fill="#914351" d="M1334.4,444.4h-29.5c-1.3,0-2.3-0.8-2.3-1.7v-10.8c0-1,1-1.7,2.3-1.7h29.5c1.3,0,2.3,0.8,2.3,1.7v10.8
				C1336.7,443.7,1335.7,444.4,1334.4,444.4z M1304.9,431.2c-0.8,0-1.3,0.4-1.3,0.7v10.8c0,0.4,0.6,0.7,1.3,0.7h29.5
				c0.7,0,1.3-0.4,1.3-0.7v-10.8c0-0.4-0.5-0.7-1.3-0.7H1304.9z"/>
		</g>
		<g>
			<path fill="#EF9DC4" d="M1334.4,575.8h-29.5c-1,0-1.8,0.6-1.8,1.2v10.8c0,0.7,0.8,1.2,1.8,1.2h29.5c1,0,1.8-0.6,1.8-1.2V577
				C1336.2,576.3,1335.4,575.8,1334.4,575.8z"/>
			<path fill="#914351" d="M1334.4,589.5h-29.5c-1.3,0-2.3-0.8-2.3-1.7V577c0-1,1-1.7,2.3-1.7h29.5c1.3,0,2.3,0.8,2.3,1.7v10.8
				C1336.7,588.8,1335.7,589.5,1334.4,589.5z M1304.9,576.3c-0.8,0-1.3,0.4-1.3,0.7v10.8c0,0.3,0.6,0.7,1.3,0.7h29.5
				c0.7,0,1.3-0.4,1.3-0.7V577c0-0.4-0.5-0.7-1.3-0.7H1304.9z"/>
		</g>
		<g>
			<path fill="#EF9DC4" d="M1334.4,720.9h-29.5c-1,0-1.8,0.6-1.8,1.2v10.8c0,0.7,0.8,1.2,1.8,1.2h29.5c1,0,1.8-0.6,1.8-1.2v-10.8
				C1336.2,721.4,1335.4,720.9,1334.4,720.9z"/>
			<path fill="#914351" d="M1334.4,734.6h-29.5c-1.3,0-2.3-0.8-2.3-1.7v-10.8c0-1,1-1.7,2.3-1.7h29.5c1.3,0,2.3,0.8,2.3,1.7v10.8
				C1336.7,733.8,1335.7,734.6,1334.4,734.6z M1304.9,721.4c-0.8,0-1.3,0.4-1.3,0.7v10.8c0,0.4,0.5,0.7,1.3,0.7h29.5
				c0.8,0,1.3-0.4,1.3-0.7v-10.8c0-0.4-0.5-0.7-1.3-0.7H1304.9z"/>
		</g>
	</g>
	<g clip-path="url(#SVGID_2_)">
		<rect x="1017.1" y="241.1" fill="#B75264" width="201.1" height="602"/>
		<rect x="1028.5" y="256.7" fill="#E26886" width="178.2" height="133.6"/>
		<rect x="1028.5" y="256.7" fill="#CE6079" width="178.2" height="18.9"/>
		<rect x="1028.5" y="402.4" fill="#E26886" width="178.2" height="133.6"/>
		<rect x="1028.5" y="548.1" fill="#E26886" width="178.2" height="133.6"/>
		<rect x="1028.5" y="693.8" fill="#E26886" width="178.2" height="133.6"/>
		<rect x="1028.5" y="256.7" fill="#914351" width="178.2" height="5.6"/>
		<rect x="1028.5" y="402.4" fill="#CE6079" width="178.2" height="18.9"/>
		<rect x="1028.5" y="402.4" fill="#914351" width="178.2" height="5.6"/>
		<rect x="1028.5" y="548.1" fill="#CE6079" width="178.2" height="18.9"/>
		<rect x="1028.5" y="548.1" fill="#914351" width="178.2" height="5.6"/>
		<rect x="1028.5" y="693.8" fill="#CE6079" width="178.2" height="18.9"/>
		<rect x="1028.5" y="693.8" fill="#914351" width="178.2" height="5.6"/>
		<g>
			<path fill="#EF9DC4" d="M1132.3,285.6h-29.5c-1,0-1.8,0.6-1.8,1.2v10.8c0,0.7,0.8,1.2,1.8,1.2h29.5c1,0,1.8-0.6,1.8-1.2v-10.8
				C1134.1,286.2,1133.3,285.6,1132.3,285.6z"/>
			<path fill="#914351" d="M1132.3,299.4h-29.5c-1.3,0-2.3-0.8-2.3-1.7v-10.8c0-1,1-1.7,2.3-1.7h29.5c1.3,0,2.3,0.8,2.3,1.7v10.8
				C1134.6,298.6,1133.6,299.4,1132.3,299.4z M1102.8,286.1c-0.8,0-1.3,0.4-1.3,0.7v10.8c0,0.4,0.5,0.7,1.3,0.7h29.5
				c0.8,0,1.3-0.4,1.3-0.7v-10.8c0-0.4-0.5-0.7-1.3-0.7H1102.8z"/>
		</g>
		<g>
			<path fill="#EF9DC4" d="M1132.3,430.7h-29.5c-1,0-1.8,0.6-1.8,1.2v10.8c0,0.7,0.8,1.2,1.8,1.2h29.5c1,0,1.8-0.6,1.8-1.2v-10.8
				C1134.1,431.3,1133.3,430.7,1132.3,430.7z"/>
			<path fill="#914351" d="M1132.3,444.4h-29.5c-1.3,0-2.3-0.8-2.3-1.7v-10.8c0-1,1-1.7,2.3-1.7h29.5c1.3,0,2.3,0.8,2.3,1.7v10.8
				C1134.6,443.7,1133.6,444.4,1132.3,444.4z M1102.8,431.2c-0.8,0-1.3,0.4-1.3,0.7v10.8c0,0.4,0.6,0.7,1.3,0.7h29.5
				c0.7,0,1.3-0.4,1.3-0.7v-10.8c0-0.4-0.5-0.7-1.3-0.7H1102.8z"/>
		</g>
		<g>
			<path fill="#EF9DC4" d="M1132.3,575.8h-29.5c-1,0-1.8,0.6-1.8,1.2v10.8c0,0.7,0.8,1.2,1.8,1.2h29.5c1,0,1.8-0.6,1.8-1.2V577
				C1134.1,576.3,1133.3,575.8,1132.3,575.8z"/>
			<path fill="#914351" d="M1132.3,589.5h-29.5c-1.3,0-2.3-0.8-2.3-1.7V577c0-1,1-1.7,2.3-1.7h29.5c1.3,0,2.3,0.8,2.3,1.7v10.8
				C1134.6,588.8,1133.6,589.5,1132.3,589.5z M1102.8,576.3c-0.8,0-1.3,0.4-1.3,0.7v10.8c0,0.3,0.6,0.7,1.3,0.7h29.5
				c0.7,0,1.3-0.4,1.3-0.7V577c0-0.4-0.5-0.7-1.3-0.7H1102.8z"/>
		</g>
		<g>
			<path fill="#EF9DC4" d="M1132.3,720.9h-29.5c-1,0-1.8,0.6-1.8,1.2v10.8c0,0.7,0.8,1.2,1.8,1.2h29.5c1,0,1.8-0.6,1.8-1.2v-10.8
				C1134.1,721.4,1133.3,720.9,1132.3,720.9z"/>
			<path fill="#914351" d="M1132.3,734.6h-29.5c-1.3,0-2.3-0.8-2.3-1.7v-10.8c0-1,1-1.7,2.3-1.7h29.5c1.3,0,2.3,0.8,2.3,1.7v10.8
				C1134.6,733.8,1133.6,734.6,1132.3,734.6z M1102.8,721.4c-0.8,0-1.3,0.4-1.3,0.7v10.8c0,0.4,0.5,0.7,1.3,0.7h29.5
				c0.8,0,1.3-0.4,1.3-0.7v-10.8c0-0.4-0.5-0.7-1.3-0.7H1102.8z"/>
		</g>
	</g>
	<rect x="532.1" y="82.1" clip-path="url(#SVGID_2_)" fill="#C25E5A" width="888.1" height="10.5"/>
	<g clip-path="url(#SVGID_2_)">
		<rect x="556.1" y="-45.4" fill="#A4524B" width="192.1" height="127.5"/>
		<g>
			<rect x="584.2" y="37.3" fill="#934942" width="37.6" height="4.7"/>
			<g>
				<polygon fill="#934942" points="589.6,11.2 583.4,16.6 587,16.6 587,34.9 589.6,34.9 592.2,34.9 592.2,16.6 595.9,16.6 				"/>
				<polygon fill="#934942" points="603,11.2 596.8,16.6 600.4,16.6 600.4,34.9 603,34.9 605.6,34.9 605.6,16.6 609.2,16.6 				"/>
				<polygon fill="#934942" points="616.4,11.2 610.1,16.6 613.8,16.6 613.8,34.9 616.4,34.9 619,34.9 619,16.6 622.6,16.6 				"/>
			</g>
		</g>
	</g>
	<g clip-path="url(#SVGID_2_)">
		<rect x="782.2" y="-45.4" fill="#A4524B" width="192.1" height="127.5"/>
		<g>
			<rect x="810.3" y="37.3" fill="#934942" width="37.6" height="4.7"/>
			<g>
				<polygon fill="#934942" points="815.8,11.2 809.5,16.6 813.2,16.6 813.2,34.9 815.8,34.9 818.3,34.9 818.3,16.6 822,16.6 				
					"/>
				<polygon fill="#934942" points="829.1,11.2 822.9,16.6 826.5,16.6 826.5,34.9 829.1,34.9 831.7,34.9 831.7,16.6 835.3,16.6 				
					"/>
				<polygon fill="#934942" points="842.5,11.2 836.3,16.6 839.9,16.6 839.9,34.9 842.5,34.9 845.1,34.9 845.1,16.6 848.7,16.6 				
					"/>
			</g>
		</g>
	</g>
	<g clip-path="url(#SVGID_2_)">
		<rect x="1240.1" y="-45.4" fill="#A4524B" width="192.1" height="127.5"/>
		<g>
			<rect x="1268.2" y="37.3" fill="#934942" width="37.6" height="4.7"/>
			<g>
				<polygon fill="#934942" points="1273.7,11.2 1267.5,16.6 1271.1,16.6 1271.1,34.9 1273.7,34.9 1276.3,34.9 1276.3,16.6 
					1279.9,16.6 				"/>
				<polygon fill="#934942" points="1287,11.2 1280.8,16.6 1284.5,16.6 1284.5,34.9 1287,34.9 1289.6,34.9 1289.6,16.6 1293.3,16.6 
									"/>
				<polygon fill="#934942" points="1300.4,11.2 1294.2,16.6 1297.8,16.6 1297.8,34.9 1300.4,34.9 1303,34.9 1303,16.6 1306.6,16.6 
									"/>
			</g>
		</g>
	</g>
	<g clip-path="url(#SVGID_2_)">
		<rect x="993.5" y="-45.4" fill="#A4524B" width="192.1" height="127.5"/>
		<g>
			<rect x="1021.5" y="37.3" fill="#934942" width="37.6" height="4.7"/>
			<g>
				<polygon fill="#934942" points="1027,11.2 1020.8,16.6 1024.4,16.6 1024.4,34.9 1027,34.9 1029.6,34.9 1029.6,16.6 1033.2,16.6 
									"/>
				<polygon fill="#934942" points="1040.4,11.2 1034.1,16.6 1037.8,16.6 1037.8,34.9 1040.4,34.9 1043,34.9 1043,16.6 1046.6,16.6 
									"/>
				<polygon fill="#934942" points="1053.7,11.2 1047.5,16.6 1051.1,16.6 1051.1,34.9 1053.7,34.9 1056.3,34.9 1056.3,16.6 
					1059.9,16.6 				"/>
			</g>
		</g>
	</g>
	<g clip-path="url(#SVGID_2_)">
		<g>
			<g>
				<g>
					<g>
						<path fill="#2E3140" d="M604.3,532.2c-1.2,0-84.4-34.4-99.2-40.5c-0.9-0.4-1.7,0.5-1.4,1.4l2,5.2c0.3,0.9,1,1.6,1.9,2
							l42.8,19.5c2.1,1,4,2.4,5.5,4.2l23.8,28.5c1.5,1.8,3.3,3.2,5.3,4.3l19.3,9.9V532.2z"/>
					</g>
				</g>
				<path fill="#454E6B" d="M504.7,495.6l1,2.6c0.3,0.9,1,1.6,1.9,2l42.8,19.5c2.1,1,4,2.4,5.5,4.2l23.8,28.5
					c1.5,1.8,3.3,3.2,5.3,4.3l19.3,9.9v-25.9L504.7,495.6L504.7,495.6z"/>
				<path fill="#7483A0" d="M585,556.6l19.3,9.9v-25.9l-22.9-10.3l0,0v23.9C582.5,555.1,583.7,555.9,585,556.6z"/>
			</g>
			<g>
				<g>
					<g>
						<path fill="#2E3140" d="M604.3,473.9c-1.2,0-84.4-34.4-99.2-40.5c-0.9-0.4-1.7,0.5-1.4,1.4l2,5.2c0.3,0.9,1,1.6,1.9,2
							l42.8,19.5c2.1,1,4,2.4,5.5,4.2l23.8,28.5c1.5,1.8,3.3,3.2,5.3,4.3l19.3,9.9V473.9z"/>
					</g>
				</g>
				<path fill="#454E6B" d="M504.7,437.4l1,2.6c0.3,0.9,1,1.6,1.9,2l42.8,19.5c2.1,1,4,2.4,5.5,4.2l23.8,28.5
					c1.5,1.8,3.3,3.2,5.3,4.3l19.3,9.9v-25.9L504.7,437.4L504.7,437.4z"/>
				<path fill="#7483A0" d="M585,498.3l19.3,9.9v-25.9L581.4,472l0,0v23.9C582.5,496.8,583.7,497.6,585,498.3z"/>
			</g>
			<g>
				<g>
					<g>
						<path fill="#2E3140" d="M753.5,376.9c1.4,0.2,104.3-21.1,122.7-24.9c1.1-0.2,2,0.8,1.5,1.6l-3,4.9c-0.5,0.8-1.4,1.4-2.5,1.7
							L819,372.8c-2.6,0.6-5,1.7-7,3.3l-31.9,24.6c-2,1.5-4.3,2.7-6.9,3.4l-24.1,6.8L753.5,376.9z"/>
					</g>
				</g>
				<path fill="#454E6B" d="M876.1,356l-1.5,2.4c-0.5,0.8-1.4,1.4-2.5,1.7L819,372.8c-2.6,0.6-5,1.7-7,3.3l-31.9,24.6
					c-2,1.5-4.3,2.7-6.9,3.4l-24.1,6.8l3.3-25.7L876.1,356L876.1,356z"/>
				<path fill="#7483A0" d="M773.2,404.1l-24.1,6.8l3.3-25.7l28.4-6.7l0,0l-3.1,23.7C776.4,403,774.9,403.6,773.2,404.1z"/>
			</g>
			<path fill="#444A5F" d="M882.8,896.7H604.5c-1.3,0-2.3-1-2.3-2.3v-428c0-1.3,1-2.3,2.3-2.3h278.3c1.3,0,2.3,1,2.3,2.3v428
				C885.1,895.7,884.1,896.7,882.8,896.7z"/>
			<rect x="602.2" y="794.4" fill="#E0DDD6" width="132.1" height="102.3"/>
			<rect x="734.3" y="794.4" fill="#E0DDD6" width="132.1" height="102.3"/>
			<rect x="602.2" y="745.3" fill="#E0DDD6" width="264.3" height="49.1"/>
			<rect x="602.2" y="696.2" fill="#E0DDD6" width="264.3" height="49.1"/>
			<rect x="602.2" y="647.1" fill="#E0DDD6" width="264.3" height="49.1"/>
			<rect x="602.2" y="598" fill="#E0DDD6" width="264.3" height="49.1"/>
			<g>
				<g>
					<path fill="#FFFFFF" d="M748.6,636.4h-25.8c-0.3,0-0.5-0.2-0.5-0.5V626c0-0.3,0.2-0.5,0.5-0.5h25.8c0.3,0,0.5,0.2,0.5,0.5v9.9
						C749.1,636.2,748.9,636.4,748.6,636.4z"/>
					<path fill="#555352" d="M748.5,637h-25.7c-0.7,0-1.2-0.5-1.2-1.2v-9.7c0-0.7,0.5-1.2,1.2-1.2h25.7c0.7,0,1.2,0.5,1.2,1.2v9.7
						C749.7,636.5,749.1,637,748.5,637z M722.8,626.1l0,9.7l25.7,0c0,0,0,0,0,0v-9.7L722.8,626.1z"/>
				</g>
				<g>
					<path fill="#D2CAC7" d="M743.8,608.7h-16.2c-2,0-3.5,1.6-3.5,3.5v4.6c0,1.9,1.6,3.5,3.5,3.5h16.2c2,0,3.5-1.6,3.5-3.5v-4.6
						C747.3,610.2,745.7,608.7,743.8,608.7z"/>
					<path fill="#B5ADAA" d="M743.8,608.7h-16.2c-2,0-3.5,1.6-3.5,3.5v2.3c0,0,10.1-6.9,23.3,0v-2.3
						C747.3,610.2,745.7,608.7,743.8,608.7z"/>
				</g>
			</g>
			<g>
				<g>
					<path fill="#FFFFFF" d="M748.6,685.3h-25.8c-0.3,0-0.5-0.2-0.5-0.5v-9.9c0-0.3,0.2-0.5,0.5-0.5h25.8c0.3,0,0.5,0.2,0.5,0.5v9.9
						C749.1,685,748.9,685.3,748.6,685.3z"/>
					<path fill="#555352" d="M748.5,685.8h-25.7c-0.7,0-1.2-0.5-1.2-1.2v-9.7c0-0.7,0.5-1.2,1.2-1.2h25.7c0.7,0,1.2,0.5,1.2,1.2v9.7
						C749.7,685.3,749.1,685.8,748.5,685.8z M722.8,674.9l0,9.7l25.7,0c0,0,0,0,0,0v-9.7L722.8,674.9z"/>
				</g>
				<g>
					<path fill="#D2CAC7" d="M743.8,657.5h-16.2c-2,0-3.5,1.6-3.5,3.5v4.6c0,1.9,1.6,3.5,3.5,3.5h16.2c2,0,3.5-1.6,3.5-3.5V661
						C747.3,659,745.7,657.5,743.8,657.5z"/>
					<path fill="#B5ADAA" d="M743.8,657.5h-16.2c-2,0-3.5,1.6-3.5,3.5v2.3c0,0,10.1-6.9,23.3,0V661
						C747.3,659,745.7,657.5,743.8,657.5z"/>
				</g>
			</g>
			<g>
				<g>
					<path fill="#FFFFFF" d="M748.6,734.1h-25.8c-0.3,0-0.5-0.2-0.5-0.5v-9.9c0-0.3,0.2-0.5,0.5-0.5h25.8c0.3,0,0.5,0.2,0.5,0.5v9.9
						C749.1,733.8,748.9,734.1,748.6,734.1z"/>
					<path fill="#555352" d="M748.5,734.7h-25.7c-0.7,0-1.2-0.5-1.2-1.2v-9.7c0-0.7,0.5-1.2,1.2-1.2h25.7c0.7,0,1.2,0.5,1.2,1.2v9.7
						C749.7,734.1,749.1,734.7,748.5,734.7z M722.8,723.7l0,9.7l25.7,0c0,0,0,0,0,0v-9.7L722.8,723.7z"/>
				</g>
				<g>
					<path fill="#D2CAC7" d="M743.8,706.3h-16.2c-2,0-3.5,1.6-3.5,3.5v4.6c0,1.9,1.6,3.5,3.5,3.5h16.2c2,0,3.5-1.6,3.5-3.5v-4.6
						C747.3,707.9,745.7,706.3,743.8,706.3z"/>
					<path fill="#B5ADAA" d="M743.8,706.3h-16.2c-2,0-3.5,1.6-3.5,3.5v2.3c0,0,10.1-6.9,23.3,0v-2.3
						C747.3,707.9,745.7,706.3,743.8,706.3z"/>
				</g>
			</g>
			<g>
				<g>
					<path fill="#FFFFFF" d="M748.6,782.9h-25.8c-0.3,0-0.5-0.2-0.5-0.5v-9.9c0-0.3,0.2-0.5,0.5-0.5h25.8c0.3,0,0.5,0.2,0.5,0.5v9.9
						C749.1,782.7,748.9,782.9,748.6,782.9z"/>
					<path fill="#555352" d="M748.5,783.5h-25.7c-0.7,0-1.2-0.5-1.2-1.2v-9.7c0-0.7,0.5-1.2,1.2-1.2h25.7c0.7,0,1.2,0.5,1.2,1.2v9.7
						C749.7,782.9,749.1,783.5,748.5,783.5z M722.8,772.5l0,9.7l25.7,0c0,0,0,0,0,0v-9.7L722.8,772.5z"/>
				</g>
				<g>
					<path fill="#D2CAC7" d="M743.8,755.1h-16.2c-2,0-3.5,1.6-3.5,3.5v4.6c0,1.9,1.6,3.5,3.5,3.5h16.2c2,0,3.5-1.6,3.5-3.5v-4.6
						C747.3,756.7,745.7,755.1,743.8,755.1z"/>
					<path fill="#B5ADAA" d="M743.8,755.1h-16.2c-2,0-3.5,1.6-3.5,3.5v2.3c0,0,10.1-6.9,23.3,0v-2.3
						C747.3,756.7,745.7,755.1,743.8,755.1z"/>
				</g>
			</g>
			<g>
				<g>
					<path fill="#FFFFFF" d="M813.3,836.1h-25.8c-0.3,0-0.5-0.2-0.5-0.5v-9.9c0-0.3,0.2-0.5,0.5-0.5h25.8c0.3,0,0.5,0.2,0.5,0.5v9.9
						C813.8,835.9,813.6,836.1,813.3,836.1z"/>
					<path fill="#555352" d="M813.2,836.7h-25.7c-0.7,0-1.2-0.5-1.2-1.2v-9.7c0-0.7,0.5-1.2,1.2-1.2h25.7c0.7,0,1.2,0.5,1.2,1.2v9.7
						C814.4,836.2,813.8,836.7,813.2,836.7z M787.5,825.8l0,9.7l25.7,0c0,0,0,0,0,0v-9.7L787.5,825.8z"/>
				</g>
				<g>
					<path fill="#D2CAC7" d="M808.5,808.4h-16.2c-2,0-3.5,1.6-3.5,3.5v4.6c0,1.9,1.6,3.5,3.5,3.5h16.2c2,0,3.5-1.6,3.5-3.5v-4.6
						C812,809.9,810.4,808.4,808.5,808.4z"/>
					<path fill="#B5ADAA" d="M808.5,808.4h-16.2c-2,0-3.5,1.6-3.5,3.5v2.3c0,0,10.1-6.9,23.3,0v-2.3
						C812,809.9,810.4,808.4,808.5,808.4z"/>
				</g>
			</g>
			<g>
				<g>
					<path fill="#FFFFFF" d="M681.1,836.1h-25.8c-0.3,0-0.5-0.2-0.5-0.5v-9.9c0-0.3,0.2-0.5,0.5-0.5h25.8c0.3,0,0.5,0.2,0.5,0.5v9.9
						C681.7,835.9,681.4,836.1,681.1,836.1z"/>
					<path fill="#555352" d="M681.1,836.7h-25.7c-0.7,0-1.2-0.5-1.2-1.2v-9.7c0-0.7,0.5-1.2,1.2-1.2h25.7c0.7,0,1.2,0.5,1.2,1.2v9.7
						C682.3,836.2,681.7,836.7,681.1,836.7z M655.4,825.8l0,9.7l25.7,0c0,0,0,0,0,0v-9.7L655.4,825.8z"/>
				</g>
				<g>
					<path fill="#D2CAC7" d="M676.3,808.4h-16.2c-2,0-3.5,1.6-3.5,3.5v4.6c0,1.9,1.6,3.5,3.5,3.5h16.2c2,0,3.5-1.6,3.5-3.5v-4.6
						C679.9,809.9,678.3,808.4,676.3,808.4z"/>
					<path fill="#B5ADAA" d="M676.3,808.4h-16.2c-2,0-3.5,1.6-3.5,3.5v2.3c0,0,10.1-6.9,23.3,0v-2.3
						C679.9,809.9,678.3,808.4,676.3,808.4z"/>
				</g>
			</g>
			<path fill="#7D8182" d="M602.2,896.7v14.4c0,1.1,0.9,1.9,1.9,1.9h50.6c0.4,0,0.9-0.1,1.2-0.4l20.2-16H602.2z"/>
			<path fill="#7D8182" d="M885.1,896.7v14.4c0,1.1-0.9,1.9-1.9,1.9h-50.6c-0.4,0-0.9-0.1-1.2-0.4l-20.2-16H885.1z"/>
			<rect x="703.1" y="491.4" fill="#444A5F" width="165.3" height="81.4"/>
			<polygon fill="#677496" points="868.4,491.4 868.4,532.1 868.4,572.8 885.1,586.7 885.1,532.1 885.1,477.5 			"/>
			<polygon fill="#7483A0" points="703.1,491.4 703.1,532.1 703.1,572.8 686.4,586.7 686.4,532.1 686.4,477.5 			"/>
			<polygon fill="#454E6B" points="686.4,477.5 885.1,477.5 868.4,491.4 703.1,491.4 			"/>
			<polygon fill="#454E6B" points="686.4,586.7 703.1,572.8 868.4,572.8 885.1,586.7 			"/>
			<path fill="#2E3140" d="M881.4,427.1H605.5c-1.8,0-3.3,1.5-3.3,3.3v30.8c0,1.8,1.5,3.3,3.3,3.3h275.9c1.8,0,3.3-1.5,3.3-3.3
				v-30.8C884.7,428.6,883.2,427.1,881.4,427.1z"/>
			<rect x="604.3" y="413.5" fill="#7483A0" width="278.3" height="13.5"/>
			<path fill="#E0DDD6" d="M604.3,413.5c0,0,1.1-34.2,6-37.4c4.8-3.1,53.7-13.4,106.8-13.8c4.7,0,9.3,0.9,13.6,2.7l64.7,27.5
				c2.8,1.2,4.7,4,4.7,7v6.3h20.5c3.5,0,6.9-0.4,10.3-1.2l45.5-10.4c0.3-0.1,0.5-0.1,0.8-0.1l0,0c1.9,0,3.4,1.4,3.6,3.3l1.8,16
				H604.3z"/>
			<g>
				<rect x="602.2" y="794.4" fill="#969693" width="264.3" height="0.8"/>
				<rect x="602.2" y="795.2" fill="#444A5F" width="264.3" height="0.8"/>
			</g>
			<g>
				<rect x="602.2" y="744.5" fill="#969693" width="264.3" height="0.8"/>
				<rect x="602.2" y="745.3" fill="#444A5F" width="264.3" height="0.8"/>
			</g>
			<g>
				<rect x="602.2" y="695.4" fill="#969693" width="264.3" height="0.8"/>
				<rect x="602.2" y="696.2" fill="#444A5F" width="264.3" height="0.8"/>
			</g>
			<g>
				<rect x="602.2" y="645.5" fill="#969693" width="264.3" height="0.8"/>
				<rect x="602.2" y="646.3" fill="#444A5F" width="264.3" height="0.8"/>
			</g>
			<g>
				<rect x="602.2" y="597.2" fill="#969693" width="264.3" height="0.8"/>
				<rect x="602.2" y="598" fill="#444A5F" width="264.3" height="0.8"/>
			</g>
			<g>
				<rect x="866.4" y="598" fill="#969693" width="0.8" height="298.8"/>
				<rect x="865.6" y="598" fill="#444A5F" width="0.8" height="298.8"/>
			</g>
			<g>
				<rect x="684.8" y="464.1" fill="#65728C" width="0.8" height="122.6"/>
				<rect x="685.6" y="464.1" fill="#232738" width="0.8" height="122.6"/>
			</g>
			<g>
				<rect x="785" y="491.4" fill="#65728C" width="0.8" height="81.4"/>
				<rect x="785.8" y="491.4" fill="#232738" width="0.8" height="81.4"/>
			</g>
			<g>
				
					<rect x="779.8" y="485.2" transform="matrix(0.1398 -0.9902 0.9902 0.1398 195.5647 1196.2272)" fill="#65728C" width="12.9" height="0.8"/>
				
					<rect x="780.6" y="485.3" transform="matrix(0.1398 -0.9902 0.9902 0.1398 196.1381 1197.1121)" fill="#232738" width="12.9" height="0.8"/>
			</g>
			<g>
				<rect x="733.5" y="796" fill="#969693" width="0.8" height="100.7"/>
				<rect x="734.3" y="796" fill="#444A5F" width="0.8" height="100.7"/>
			</g>
			<g>
				<g>
					<path fill="#7483A0" d="M666.7,487.2h-44.6c-1.5,0-2.7-1.2-2.7-2.7v-1.7c0-1.5,1.2-2.7,2.7-2.7h44.6c1.5,0,2.7,1.2,2.7,2.7v1.7
						C669.4,486,668.2,487.2,666.7,487.2z"/>
					<path fill="#454E6B" d="M666.3,480.1h-43.7c-1.7,0-3.1,1.4-3.1,3.1v0.8h49.9v-0.8C669.4,481.5,668,480.1,666.3,480.1z"/>
				</g>
				<g>
					<path fill="#7483A0" d="M666.7,502.3h-44.6c-1.5,0-2.7-1.2-2.7-2.7v-1.7c0-1.5,1.2-2.7,2.7-2.7h44.6c1.5,0,2.7,1.2,2.7,2.7v1.7
						C669.4,501.1,668.2,502.3,666.7,502.3z"/>
					<path fill="#454E6B" d="M666.3,495.3h-43.7c-1.7,0-3.1,1.4-3.1,3.1v0.8h49.9v-0.8C669.4,496.7,668,495.3,666.3,495.3z"/>
				</g>
				<g>
					<path fill="#7483A0" d="M666.7,517.4h-44.6c-1.5,0-2.7-1.2-2.7-2.7V513c0-1.5,1.2-2.7,2.7-2.7h44.6c1.5,0,2.7,1.2,2.7,2.7v1.7
						C669.4,516.2,668.2,517.4,666.7,517.4z"/>
					<path fill="#454E6B" d="M666.3,510.4h-43.7c-1.7,0-3.1,1.4-3.1,3.1v0.8h49.9v-0.8C669.4,511.8,668,510.4,666.3,510.4z"/>
				</g>
				<g>
					<path fill="#7483A0" d="M666.7,532.5h-44.6c-1.5,0-2.7-1.2-2.7-2.7v-1.7c0-1.5,1.2-2.7,2.7-2.7h44.6c1.5,0,2.7,1.2,2.7,2.7v1.7
						C669.4,531.3,668.2,532.5,666.7,532.5z"/>
					<path fill="#454E6B" d="M666.3,525.5h-43.7c-1.7,0-3.1,1.4-3.1,3.1v0.8h49.9v-0.8C669.4,526.9,668,525.5,666.3,525.5z"/>
				</g>
				<g>
					<path fill="#7483A0" d="M666.7,547.6h-44.6c-1.5,0-2.7-1.2-2.7-2.7v-1.7c0-1.5,1.2-2.7,2.7-2.7h44.6c1.5,0,2.7,1.2,2.7,2.7v1.7
						C669.4,546.4,668.2,547.6,666.7,547.6z"/>
					<path fill="#454E6B" d="M666.3,540.6h-43.7c-1.7,0-3.1,1.4-3.1,3.1v0.8h49.9v-0.8C669.4,542,668,540.6,666.3,540.6z"/>
				</g>
				<g>
					<path fill="#7483A0" d="M666.7,562.8h-44.6c-1.5,0-2.7-1.2-2.7-2.7v-1.7c0-1.5,1.2-2.7,2.7-2.7h44.6c1.5,0,2.7,1.2,2.7,2.7v1.7
						C669.4,561.6,668.2,562.8,666.7,562.8z"/>
					<path fill="#454E6B" d="M666.3,555.7h-43.7c-1.7,0-3.1,1.4-3.1,3.1v0.8h49.9v-0.8C669.4,557.1,668,555.7,666.3,555.7z"/>
				</g>
				<g>
					<path fill="#7483A0" d="M666.7,577.9h-44.6c-1.5,0-2.7-1.2-2.7-2.7v-1.7c0-1.5,1.2-2.7,2.7-2.7h44.6c1.5,0,2.7,1.2,2.7,2.7v1.7
						C669.4,576.7,668.2,577.9,666.7,577.9z"/>
					<path fill="#454E6B" d="M666.3,570.9h-43.7c-1.7,0-3.1,1.4-3.1,3.1v0.8h49.9V574C669.4,572.3,668,570.9,666.3,570.9z"/>
				</g>
			</g>
			<path fill="#2E3140" d="M785.8,440l-99.4-9.1l1.8,46.1c0.2,1.6,1.6,2.8,3.2,2.8h94.4h94.4c1.6,0,2.9-1.2,3.2-2.8l1.8-46.1
				L785.8,440z"/>
			<path fill="#4D5165" d="M785.8,431h-99.4l4.9,37c0.2,1.6,1.5,2.8,3.1,2.8h91.4h91.4c1.5,0,2.9-1.2,3.1-2.8l4.9-37H785.8z"/>
			<g>
				<polygon fill="#65728C" points="787.4,586.5 785.8,572.6 785,572.7 786.6,586.6 				"/>
				<polygon fill="#232738" points="788.2,586.4 786.5,572.4 785.8,572.6 787.4,586.5 				"/>
			</g>
			<g>
				<rect x="602.2" y="586.5" fill="#65728C" width="283" height="0.8"/>
				<rect x="602.2" y="585.7" fill="#232738" width="283" height="0.8"/>
			</g>
			<g>
				<g>
					<path fill="#454E6B" d="M813.8,502.3h-16.2c-2,0-3.5,1.6-3.5,3.5v4.6c0,1.9,1.6,3.5,3.5,3.5h16.2c2,0,3.5-1.6,3.5-3.5v-4.6
						C817.4,503.8,815.8,502.3,813.8,502.3z"/>
					<path fill="#202434" d="M813.8,514h-16.2c-2,0-3.7-1.6-3.7-3.6v-4.6c0-2,1.7-3.6,3.7-3.6h16.2c2,0,3.7,1.6,3.7,3.6v4.6
						C817.5,512.4,815.9,514,813.8,514z M797.6,502.4c-1.9,0-3.4,1.5-3.4,3.3v4.6c0,1.8,1.5,3.3,3.4,3.3h16.2c1.9,0,3.4-1.5,3.4-3.3
						v-4.6c0-1.8-1.5-3.3-3.4-3.3H797.6z"/>
				</g>
				<path fill="#222637" d="M813.8,502.3h-16.2c-2,0-3.5,1.6-3.5,3.5v2.3c0,0,10.1-6.9,23.3,0v-2.3
					C817.4,503.8,815.8,502.3,813.8,502.3z"/>
				<g>
					<path fill="#454E6B" d="M773.9,502.3h-16.2c-2,0-3.5,1.6-3.5,3.5v4.6c0,1.9,1.6,3.5,3.5,3.5h16.2c2,0,3.5-1.6,3.5-3.5v-4.6
						C777.4,503.8,775.8,502.3,773.9,502.3z"/>
					<path fill="#202434" d="M773.9,514h-16.2c-2,0-3.7-1.6-3.7-3.6v-4.6c0-2,1.7-3.6,3.7-3.6h16.2c2,0,3.7,1.6,3.7,3.6v4.6
						C777.6,512.4,775.9,514,773.9,514z M757.7,502.4c-1.9,0-3.4,1.5-3.4,3.3v4.6c0,1.8,1.5,3.3,3.4,3.3h16.2c1.9,0,3.4-1.5,3.4-3.3
						v-4.6c0-1.8-1.5-3.3-3.4-3.3H757.7z"/>
				</g>
				<path fill="#222637" d="M773.9,502.3h-16.2c-2,0-3.5,1.6-3.5,3.5v2.3c0,0,10.1-6.9,23.3,0v-2.3
					C777.4,503.8,775.8,502.3,773.9,502.3z"/>
			</g>
			<rect x="866.4" y="597.2" fill="#969693" width="0.8" height="0.8"/>
			<path fill="#DDDEE3" d="M695.3,437.4h98.3c1.3,0,2.3,1,2.3,2.3v24.5c0,1.3-1,2.3-2.3,2.3h-94.7c-1.1,0-2.1-0.8-2.3-2L693,440
				C692.8,438.6,693.8,437.4,695.3,437.4z"/>
			<rect x="697.7" y="442.8" width="23.4" height="0.5"/>
			<rect x="698.8" y="447.3" width="35.6" height="0.5"/>
			<rect x="700.6" y="451.8" width="35.6" height="0.5"/>
			<rect x="702.4" y="456.3" width="35.6" height="0.5"/>
			<rect x="704.2" y="460.7" width="35.6" height="0.5"/>
			<path fill="#7483A0" d="M636.8,405.9h163.2v-6.3c0-3.1-1.8-5.8-4.7-7l-64.2-27.3c-60.2,10.8-86.2,25.5-96.7,33.9
				C631.7,401.4,633.3,405.9,636.8,405.9z"/>
		</g>
		<g>
			<path fill="#F0BDAB" d="M438.2,525.6c0.9,1.1-0.1,2.8-1.5,3.2c-1.3,0.4-2.7-0.1-4-0.6c-2.8-1.1-5.8-2.4-8.4-4.2
				c-2.8-2-5.3-4.4-8.2-6.3c-2.8-1.9-6-3.3-8.7-5.3c-4.8-3.7-7.4-8.5-10.5-13.6c-0.6-1-1.2-2-1.7-3.1c-0.2-0.5-0.3-1-0.2-1.5
				c0.2-0.6,0.8-1.1,1.3-1.5c4.3-3.1,8-6.9,11-11.2c0.4-0.6,0.9-1.3,1.5-1.6c0.7-0.4,1.5-0.4,2.3-0.3c9.2,0.2,21.9,1.8,29,8.5
				c3.3,3.1,5.1,7.6,8.7,10.3c0.8,0.6,1.6,1.1,2.2,1.9c0.6,0.8,0.7,2,0,2.7c-0.4,0.4-1,0.5-1.6,0.6c-1.4,0.2-2.8,0.2-4.2,0.1
				c0,3.1,2.9,5,5.1,6.6c2.9,2,5.4,4.4,7.6,7.1c0.8,1,1.5,2.5,0.6,3.4c-0.3,0.3-0.8,0.5-1.2,0.6c-1.5,0.4-3.5,0.7-4.5-0.6
				c0,1.2,1,2.2,0.9,3.4c-0.1,1.5-1.9,2.5-3.4,2.2s-2.7-1.4-3.8-2.5c-0.1,1-0.1,2.1-0.2,3.1c0,0.3,0,0.5-0.2,0.7
				c-0.1,0.1-0.3,0.2-0.4,0.3C443.2,529.1,440.4,527.3,438.2,525.6z"/>
			<path fill="#D2AA96" d="M435.5,497.6c0,0-0.3,0.1-0.8,0.3c-0.5,0.2-1.3,0.4-2.3,0.6c-0.5,0.1-1,0.2-1.6,0.2
				c-0.6,0.1-1.1,0.1-1.8,0.1c-0.6,0-1.2,0-1.9-0.1c-0.6-0.1-1.3-0.1-1.9-0.2c-0.6-0.1-1.3-0.3-1.9-0.4c-0.6-0.1-1.2-0.4-1.8-0.6
				c-0.6-0.2-1.1-0.5-1.6-0.7c-0.2-0.1-0.5-0.2-0.7-0.4c-0.2-0.1-0.4-0.3-0.6-0.4c-0.4-0.3-0.8-0.5-1.1-0.7
				c-0.3-0.3-0.6-0.5-0.8-0.7c-0.4-0.4-0.7-0.6-0.7-0.6s0.3,0.2,0.8,0.4c0.2,0.1,0.5,0.3,0.9,0.5c0.3,0.2,0.7,0.4,1.2,0.6
				c0.4,0.2,0.9,0.4,1.4,0.6c0.5,0.2,1,0.4,1.6,0.6c0.6,0.2,1.1,0.4,1.7,0.5c0.6,0.2,1.2,0.3,1.8,0.4c0.6,0.1,1.2,0.2,1.9,0.3
				c0.6,0.1,1.2,0.1,1.8,0.1c0.6,0,1.2,0,1.7,0c0.5,0,1.1,0,1.5-0.1c1-0.1,1.7-0.1,2.3-0.2C435.2,497.7,435.5,497.6,435.5,497.6z"/>
			<path fill="#F0BDAB" d="M411.9,479.9c-0.3-0.1-0.6-0.3-0.9-0.4c-6-3.3-58.1-64.3-58.1-64.3s-17.3,34.2-2.6,43.5
				c11.1,7,35.5,28.6,47.8,40.7L411.9,479.9z"/>
			<path fill="#FBC6B2" d="M322.1,271.1c0.1-1.6,0.2-3.2,0.7-4.7c0.8-2.2,2.6-4,4.8-4.8c0.6-0.2,1.2-0.4,1.7-0.8s1-1.5,0.7-2
				c0-2.5,0.3-5,0.7-7.4c0.2-1,0.5-2.1,1.1-2.8c0.5-0.6,1.2-0.9,1.9-1.2c2.1-0.8,4.5-0.9,6.8-0.9c2.3,0,4.6,0,6.8-0.6
				c2.2-0.6,4.3-2.1,5.1-4.3c0.3-0.9,0.4-1.8,0.5-2.7c0.2-1.8,0.3-3.6,0.5-5.5c0.1-1,0.2-2.1,0-3.1c-0.1-0.7-0.3-1.4-0.3-2.1
				c0-0.9,0.4-1.6,0.7-2.5s0.9-1.8,0.5-2.5c-1-1.4-0.4-3.5,0.8-4.7c1.2-1.2,2.9-1.8,4.5-2.4c1.3-0.4,2.9-1.2,3-2.6
				c0.1-0.6-0.2-1.2-0.5-1.8c-2.2-4-5.5-7.3-8.4-10.9c-1.2-1.5-2.5-3.4-1.8-5.2c0.3-0.7,0.8-1.3,1.2-1.9c1.4-2.4,0.6-5.4-0.4-8
				c-1.6-3.9-3.5-7.7-5.8-11.2c-0.6-1-1.3-1.9-2-2.8c-1.6-1.8-3.5-3.3-5.4-4.8c0,0-31.1,3.6-32.2,4.5c-1.1,0.9-10.2,11.6-10.5,12
				c-0.2,0.5-7.8,29.4-9,33.6s-2.8,13.5-2.8,13.5l-1,18.1L322.1,271.1z"/>
			<path fill="#F9B5AA" d="M312.7,199.5c0,0-0.2-0.1-0.5-0.2c-0.3-0.1-0.7-0.3-1.3-0.5c-1.1-0.3-2.8-0.8-4.8-0.4
				c-1,0.2-2,0.6-2.8,1.4c-0.2,0.2-0.4,0.4-0.6,0.7c-0.2,0.2-0.3,0.5-0.5,0.7c-0.3,0.5-0.6,1.1-0.8,1.6c-0.8,2.4-0.4,5.1,0.4,7.7
				c0.4,1.3,0.9,2.5,1.4,3.8c0.6,1.2,1.1,2.4,1.7,3.5c0.6,1.1,1.2,2.2,1.8,3.1c0.6,1,1.3,1.8,2,2.5c0.7,0.7,1.5,1.2,2.2,1.4
				c0.7,0.3,1.4,0.2,2,0.1c0.6-0.1,1-0.3,1.3-0.5c0.3-0.2,0.4-0.2,0.4-0.2l0.1,0.1c0,0-0.1,0.1-0.4,0.3c-0.3,0.2-0.7,0.4-1.3,0.6
				c-0.6,0.2-1.4,0.3-2.2,0.1c-0.9-0.2-1.7-0.7-2.5-1.4c-0.8-0.7-1.5-1.6-2.2-2.5c-0.7-1-1.3-2.1-1.9-3.2c-0.6-1.2-1.1-2.4-1.6-3.6
				c-0.5-1.3-1-2.6-1.4-3.9c-0.4-1.3-0.6-2.7-0.7-4.1c-0.1-1.4,0.1-2.7,0.5-4c0.2-0.6,0.5-1.2,0.9-1.7c0.2-0.3,0.4-0.5,0.6-0.8
				c0.2-0.2,0.4-0.4,0.6-0.6c0.9-0.8,2-1.3,3.1-1.4c1-0.2,2-0.1,2.8,0.1c0.8,0.1,1.5,0.3,2.1,0.5c0.6,0.2,1,0.4,1.3,0.5
				C312.6,199.4,312.8,199.4,312.7,199.5L312.7,199.5z"/>
			<path fill="#F9B5AA" d="M311.2,203.4c0,0,0-0.1-0.1-0.2c-0.1-0.2-0.2-0.4-0.4-0.6c-0.2-0.3-0.4-0.6-0.8-0.8
				c-0.3-0.3-0.8-0.6-1.2-0.8c-0.5-0.2-1.1-0.4-1.7-0.3c-0.6,0-1.2,0.2-1.8,0.5c-0.6,0.3-1.1,0.8-1.5,1.4c-0.1,0.1-0.2,0.3-0.3,0.4
				l-0.2,0.5c-0.1,0.3-0.2,0.7-0.3,1c-0.2,0.7-0.3,1.4-0.2,2.1c0,0.7,0.1,1.4,0.2,2.1c0.1,0.7,0.3,1.3,0.5,1.9
				c0.2,0.6,0.4,1.1,0.7,1.6c0.5,1,0.9,1.8,1.2,2.4c0.3,0.6,0.5,0.9,0.5,0.9s-0.2-0.3-0.6-0.8c-0.4-0.5-0.9-1.3-1.4-2.3
				c-0.3-0.5-0.5-1-0.7-1.6c-0.2-0.6-0.4-1.2-0.6-1.9c-0.2-0.7-0.3-1.4-0.3-2.1c0-0.7,0.1-1.5,0.2-2.2c0.2-0.8,0.5-1.4,0.9-2.1
				c0.4-0.6,1-1.2,1.6-1.5c0.6-0.3,1.4-0.5,2-0.4c0.7,0,1.3,0.2,1.8,0.4c0.5,0.2,0.9,0.6,1.3,0.9c0.3,0.3,0.6,0.6,0.7,0.9
				c0.2,0.3,0.3,0.5,0.3,0.7C311.2,203.3,311.2,203.4,311.2,203.4z"/>
			<path fill="#F9B5AA" d="M337.1,246.6c-16.9-6.1-22.3-18.1-22.3-18.1c-1.7,9.6,11.9,18.4,16.5,21.1c0.2-0.4,0.4-0.7,0.6-1.1
				c0.5-0.6,1.2-0.9,1.9-1.2C334.9,247,336,246.7,337.1,246.6z"/>
			<ellipse fill="#2F2D2E" cx="346.9" cy="199.8" rx="1.3" ry="1.7"/>
			<ellipse fill="#FFFFFF" cx="346.6" cy="199.4" rx="0.3" ry="0.4"/>
			<path fill="#2F2D2E" d="M334.9,144.3c0.4,1.2,0,2.7-1,3.5c2,0.2,4-0.2,5.7-1.3c0.2,1-0.3,2.2-1.3,2.5c1.7,0,3.5,0,5.2,0
				c0.6,0,1.2,0,1.6-0.4c0.1,0.4-0.1,0.9-0.4,1.2c-0.3,0.3-0.8,0.5-1.2,0.6c3.2,0.1,6.3,0.7,9.2-1c2.3-1.3,4.2-3.8,3.6-6.6
				c3.7,5.6,2.9,13.6-1.4,18.8c-4.3,5.2-11.4,7.6-18.1,6.9c-3.6-0.4-7.9-1.3-10.1,1.9c-0.8,1.2-1,2.8-0.8,4.3
				c0.7,3.7,3.5,6.2,5.2,9.3c0.5,0.9,0.9,1.8,0.8,2.8c-0.2,2.7-3.5,3.9-4.8,6.2c-0.9,1.5-0.9,3.3-0.8,4.9c0.1,5.8,0.1,11.5,0.2,17.3
				c0,0.6-0.7,1-1.2,0.7c-2.3-1.2-3.9-3.8-4.9-6.3c-1.2-2.9-2-6.1-4-8.5c-2.5-3-6.7-4.4-10.6-4.3c-0.6,0-1.3,0.1-1.8,0.4
				c-0.8,0.4-1.2,1.3-1.6,2.1c-2.2,4.9-2.8,10.5-1.9,15.8c0.5,2.6,1.3,5.2,1,7.8c-0.3,3.2-2.2,6.1-4.7,8.3c-2.4,2.1-5.4,3.6-8.3,5.1
				c-1.4,0.7-3,1.4-4.3,0.6c-0.8-0.5-1.2-1.3-1.5-2.1c-2-4.6-3.6-9.7-5.3-14.5c-1.8-5-4.6-9.5-6.6-14.4c-2.4-5.9-4.5-12-5.1-18.3
				c-0.5-4.8,0.1-9.7,1.8-14.2c1.9-4.9,5.1-8.5,8.7-12.2c2.6-2.7,5.5-5,8.8-6.7c2-1,4-2,5.9-3c1.6-0.8,3.2-1.6,4.5-2.7
				c1.2-1.1,2.2-2.5,2.5-4.1c0,0.3,0.7,1.3,0.7,1.8c0.1,0.8-0.2,1.4-0.3,2.1c2.5,0.1,5.5-1,7.8-2c2.5-1.1,4.9-2.5,6.9-4.3
				c0.4,1.1,0.4,2.3,0,3.4c1.4-0.3,2.7-1,3.7-2c-0.1,0.9-0.6,1.8-1.4,2.4c0.4-0.3,2.3,0,2.8,0c1.3,0.1,2.7,0,4,0.2
				c1.4,0.2,2.9,0.3,4.3,0.2C329.2,146.1,332.1,145.3,334.9,144.3z"/>
			<path d="M353.2,193.8C353.2,193.8,353.2,193.8,353.2,193.8c0.5-0.8,0.7-1.6,0.7-2.5c-11.9-3.1-15.5,3.2-15.5,3.2
				C345.8,191,351.3,192.9,353.2,193.8z"/>
			<path fill="#4DB748" d="M280.4,255.8c0,0-25.5,20.5-32.1,36.5c-6.6,16.1-8.4,89.9,2.1,133.2s8.7,110.8,8.7,110.8h96.4
				c0,0-0.9-157.6-7.8-186.4c-6.9-28.8-9.6-46.2-20.6-60.6C316.2,274.7,280.4,255.8,280.4,255.8z"/>
			<path fill="#43A340" d="M328.3,273l-1.3,18.2c-0.1,1-1.2,1.5-2,0.9l-44.6-36.3c-0.3-0.2-0.4-0.5-0.4-0.9c0-1.6,0.2-6.6,1.7-9.3
				c0.7-1.2,2.3-1.6,3.5-0.9c5.8,3.6,30.4,18.7,41.6,25.4C327.8,270.7,328.4,271.8,328.3,273z"/>
			<path d="M375.3,859.4c1.4-0.3,9.5,7,10.9,7.9c11.3,6.7,23.8,7.9,36.5,9.8c3.2,0.5,18.3,1.8,16.7,8c-1.5,5.8-8.9,9.4-13.9,11.4
				c-6.5,2.7-13.5,4.3-20.5,5.4c-9.6,1.5-19.4,2.5-29.1,1.2c-1.6-0.2-18.8-3.2-18.8-3.5c0,0-1,5-1,5l-22.4-2.9c0,0-3.2-20.5,0.7-28
				C338.4,866.2,375.3,859.4,375.3,859.4z"/>
			<path d="M314,869.8c1.4-0.1,8.5,8.2,9.8,9.2c10.4,8.1,22.6,10.9,34.9,14.4c3.2,0.9,17.9,4.2,15.5,10.1c-2.3,5.6-10,8.1-15.2,9.6
				c-6.8,1.9-14,2.5-21,2.7c-9.7,0.3-19.6,0-29-2.6c-1.6-0.4-18.2-5.6-18.2-5.9c0,0-1.6,4.8-1.6,4.8l-21.8-5.8
				c0,0-0.6-20.8,4.3-27.7C276.6,871.7,314,869.8,314,869.8z"/>
			<path fill="#292828" d="M378.7,856.4c-8.4-26.3-11.7-74.9-14.1-117.6c-2.5-44-10.6-200.5-10.6-200.5L258.5,520
				c-4.1,16.3-1.3,34.2,7.5,48.5c4.9,8,11.6,14.7,16.5,22.7c7.4,12.1,10.4,26.3,13.3,40.2c3.5,16.8,7,33.6,10.5,50.4
				c1.5,7.2,3.8,14.7,3.8,22.1c0.1,7.4-0.7,14.9-0.5,22.4c0.8,26.2,5.6,51.8,7.7,77.9c2.5,30.5,8.5,40.3,8.5,40.3
				c-2,15.1,3,25.4,5,28.8c0.4,0.7,1.2,1.2,2.1,1.2c11,0,36.4-11.1,44.1-14.6C378.5,859.2,379.1,857.8,378.7,856.4z"/>
			<path fill="#2F2D2E" d="M355.5,536.2l-0.1-9c-22.9,4.4-85.2-6.3-95.5-8.1l-1.5-0.3c-9.3,12.9-9.4,30.5-5.4,45.8
				c6.9,26,19.4,50.1,23.4,76.9c2.1,13.7,0.1,27.8,2.4,41.3c1.3,7.2,1.4,16,0.3,23.2c-1.2,7.3-3.1,14.6-4.1,22
				c-3.5,25.9-3,52.1-5.1,78.1c-2.5,30.5,1.8,41.1,1.8,41.1c-4.5,14.5-1.2,25.6,0.2,29.2c0.3,0.8,1,1.4,1.8,1.5
				c10.9,1.8,37.7-4.9,45.9-7.1c1.4-0.4,2.3-1.7,2.1-3.1c-4-27.3,0.8-75.8,5.3-118.3C331.8,705.6,355.5,536.2,355.5,536.2z"/>
			<path fill="#41A03F" d="M306.7,310.7c0,0,11.1,40.1,12.4,85.3l-4.6,2.1l-10.5-83.4L306.7,310.7z"/>
			<path fill="#41A03F" d="M270.6,409.5c0,0-7.4,0-7.4,0c-10.5-30.8-21-66-19-98.8c0.8-13.1,5-25.4,19.9-27.7
				c7.1-1.1,14.6,1.1,20,5.8c-5.6-4.4-13.4-5.9-20.3-3.8c-16,4.9-14.1,22.3-12.3,35.5c2.8,20.4,5.8,40.8,10.6,60.9
				C264.4,390.9,267,400.4,270.6,409.5z"/>
			
				<rect x="425.3" y="467.4" transform="matrix(0.7072 0.7071 -0.7071 0.7072 508.9975 -176.6648)" fill="#FFFFFF" width="85" height="117.5"/>
			<path fill="#F0BDAB" d="M449.5,503.5c0.6-0.1,1.2-0.3,1.6-0.7c0.7-0.7,0.6-1.9,0-2.7c-0.6-0.8-1.4-1.3-2.2-1.9
				c-3-2.3-4.8-5.8-7.2-8.7l-5.5,6.4c2.5,2.5,3.9,2.1,3.9,2.1c1.3,2.5,3.6,5.4,6.6,5.6C447.4,503.7,448.5,503.7,449.5,503.5z"/>
			<path fill="#FBC6B2" d="M272.9,408.5c0,0,6.6,18.4,10.2,26.8c3.6,8.4,133.9,27,133.9,27l3-22.8l-103.2-21l-2.9-30.6L272.9,408.5z
				"/>
			<path fill="#FBC6B2" d="M458,474.7c1.2,0.8,0.7,2.7-0.4,3.5c-1.2,0.8-2.7,0.7-4.1,0.6c-3-0.2-6.3-0.6-9.3-1.5
				c-3.3-1-6.4-2.6-9.7-3.5c-3.3-1-6.7-1.3-10-2.4c-5.7-2.1-9.7-5.9-14.2-9.8c-0.9-0.8-1.8-1.5-2.5-2.4c-0.3-0.4-0.6-0.8-0.6-1.4
				c0-0.7,0.4-1.3,0.8-1.8c3.1-4.3,5.5-9,7.1-14.1c0.2-0.7,0.4-1.5,1-2c0.5-0.6,1.3-0.8,2.1-1c8.9-2.6,21.5-5,30.3-0.8
				c4.1,2,7.2,5.7,11.5,7.2c0.9,0.3,1.9,0.6,2.7,1.2c0.8,0.6,1.3,1.7,0.8,2.6c-0.3,0.5-0.8,0.8-1.3,1c-1.3,0.6-2.6,1.1-3.9,1.4
				c1,2.9,4.3,3.9,6.9,4.8c3.4,1.1,6.5,2.5,9.4,4.5c1.1,0.7,2.2,1.9,1.6,3c-0.2,0.4-0.6,0.7-1,0.9c-1.3,0.9-3.1,1.7-4.5,0.9
				c0.3,1.2,1.6,1.9,1.9,3c0.4,1.5-1.1,2.9-2.6,3.1c-1.5,0.2-3-0.5-4.4-1.2c0.3,1,0.5,2.1,0.8,3.1c0.1,0.2,0.1,0.5,0,0.7
				c-0.1,0.2-0.2,0.3-0.3,0.4C464,476.5,460.7,475.7,458,474.7z"/>
			<path fill="#4DB748" d="M314.6,399.8l-44.3,8.6c-1,0.2-1.9-0.3-2.3-1.3c-2.7-6.8-13.1-34.3-17.8-59.4
				c-3.2-17.1-7.3-34.7,0.1-51.4c1.2-2.7,2.7-6.4,4.9-8.4c2.3-2.1,4-2,6.5-0.6c1.9,1.1,3.9,2.2,5.8,3.3c5.5,3,10.9,6.1,16.4,9.1
				c7.6,4.3,15.3,8.5,22.9,12.8c1.7,8,3,16.1,4.1,24.1c1.7,12.9,2.1,26,2.8,39C313.7,377.9,316.5,399.5,314.6,399.8z"/>
		</g>
	</g>
</g>
</svg>
